<?xml version="1.0" encoding="UTF-8"?>
<svg id="Layer_1" data-name="Layer 1" xmlns="http://www.w3.org/2000/svg" viewBox="0 0 512 512">
  <defs>
    <style>
      .cls-1 {
        fill: #e1d5ed;
      }

      .cls-1, .cls-2 {
        stroke: #000;
        stroke-miterlimit: 10;
      }
    </style>
  </defs>
  <rect class="cls-2" width="512" height="512"/>
  <path class="cls-1" d="M449.86,298.2c0-.89-.09-1.75-.22-2.6V79.15c0-9.28-7.52-16.8-16.8-16.8s-16.8,7.52-16.8,16.8v202.25h-143.25V79.15c0-8.7-6.61-15.85-15.09-16.72-.57-.06-1.14-.08-1.72-.08H79.15c-9.28,0-16.8,7.52-16.8,16.8v216.45c-.13.85-.22,1.71-.22,2.6s.09,1.75.22,2.6v132.04c0,9.28,7.52,16.8,16.8,16.8s16.8-7.52,16.8-16.8v-117.84h143.25v117.84c0,9.28,7.52,16.8,16.8,16.8s16.8-7.52,16.8-16.8v-117.84h143.25v117.84c0,9.28,7.52,16.8,16.8,16.8s16.8-7.52,16.8-16.8v-132.04c.13-.85.22-1.71.22-2.6h0ZM228.09,167.8c0,33.55-27.19,60.74-60.74,60.74s-60.74-27.19-60.74-60.74,27.19-60.74,60.74-60.74,60.74,27.19,60.74,60.74Z"/>
</svg>