<?xml version="1.0" encoding="UTF-8"?>
<svg id="Layer_1" data-name="Layer 1" xmlns="http://www.w3.org/2000/svg" viewBox="0 0 512 512">
  <defs>
    <style>
      .cls-1 {
        fill: #fff;
      }

      .cls-1, .cls-2 {
        stroke: #000;
        stroke-miterlimit: 10;
      }
    </style>
  </defs>
  <rect class="cls-2" width="512" height="512"/>
  <path class="cls-1" d="M413.22,290.22c0-.72-.07-1.42-.18-2.11V112.59c0-7.52-6.1-13.62-13.62-13.62s-13.62,6.1-13.62,13.62v164.02h-116.17V112.59c0-7.05-5.36-12.85-12.23-13.56-.46-.05-.92-.07-1.4-.07H112.59c-7.52,0-13.62,6.1-13.62,13.62v175.53c-.1.69-.18,1.39-.18,2.11s.07,1.42.18,2.11v107.08c0,7.52,6.1,13.62,13.62,13.62s13.62-6.1,13.62-13.62v-95.57h116.17v95.57c0,7.52,6.1,13.62,13.62,13.62s13.62-6.1,13.62-13.62v-95.57h116.17v95.57c0,7.52,6.1,13.62,13.62,13.62s13.62-6.1,13.62-13.62v-107.08c.1-.69.18-1.39.18-2.11h0ZM233.37,184.47c0,27.2-22.05,49.26-49.26,49.26s-49.26-22.05-49.26-49.26,22.05-49.26,49.26-49.26,49.26,22.05,49.26,49.26Z"/>
</svg>