<?xml version="1.0" encoding="UTF-8"?>
<svg id="Layer_1" data-name="Layer 1" xmlns="http://www.w3.org/2000/svg" viewBox="0 0 512 512">
  <defs>
    <style>
      .cls-1 {
        fill: #e1d5ed;
        stroke: #000;
        stroke-miterlimit: 10;
      }
    </style>
  </defs>
  <path class="cls-1" d="M511.73,311.65c0-1.17-.12-2.31-.29-3.43V22.7c0-12.24-9.92-22.16-22.16-22.16s-22.16,9.92-22.16,22.16v266.79h-188.96V22.7c0-11.47-8.72-20.91-19.9-22.05-.75-.08-1.5-.11-2.27-.11H22.72c-12.24,0-22.16,9.92-22.16,22.16v285.52c-.17,1.12-.29,2.26-.29,3.43s.12,2.31.29,3.43v174.18c0,12.24,9.92,22.16,22.16,22.16s22.16-9.92,22.16-22.16v-155.45h188.96v155.45c0,12.24,9.92,22.16,22.16,22.16s22.16-9.92,22.16-22.16v-155.45h188.96v155.45c0,12.24,9.92,22.16,22.16,22.16s22.16-9.92,22.16-22.16v-174.18c.17-1.12.29-2.26.29-3.43h0ZM219.19,139.63c0,44.25-35.87,80.12-80.12,80.12s-80.12-35.87-80.12-80.12,35.87-80.12,80.12-80.12,80.12,35.87,80.12,80.12Z"/>
</svg>