<?xml version="1.0" encoding="UTF-8"?>
<svg id="Layer_1" data-name="Layer 1" xmlns="http://www.w3.org/2000/svg" viewBox="0 0 512 512">
  <defs>
    <style>
      .cls-1 {
        fill: #fff;
      }
    </style>
  </defs>
  <g id="g1jkuE.tif">
    <g>
      <path class="cls-1" d="m511.75,99.36c-3.51,16.66-13.41,29.14-25.25,40.86-45.39,44.91-90.45,90.16-135.55,135.36-22.92,22.97-49.92,38.36-81.83,44.95-9.64,1.99-19.4,2.88-29.18,3.25-13.47.51-23.01-8.69-22.75-22.15.8-40.19,13.87-76.02,42.01-104.84,49.84-51.03,100.65-101.12,151.17-151.49,9.49-9.47,21.3-14.55,34.61-16.13.98-.12,1.93-.44,2.89-.66,2.66,0,5.32,0,7.98,0,11.15,1.56,21.73,4.64,31.02,11.33,13.66,9.83,21.37,23.37,24.87,39.56v19.96Zm-59.19-29.67c-7.34.09-12.32,3.4-16.81,7.89-46.88,46.91-93.73,93.85-140.71,140.66-16.13,16.08-27.86,34.61-33.4,56.84-1.32,5.29-1.16,5.44,4.18,4.12,21.2-5.24,39.27-15.89,54.67-31.3,47.58-47.62,95.2-95.2,142.8-142.8,1.52-1.52,3.12-3.05,4.31-4.82,4.25-6.27,5-13.04,1.53-19.81-3.54-6.9-9.48-10.45-16.57-10.8Z"/>
      <path class="cls-1" d="m.4,301.78c0-39.08.53-78.17-.13-117.24-.85-50.06,37.68-95,88.3-100.58,3.3-.36,6.61-.78,9.92-.79,56.06-.05,112.11-.08,168.17-.03,17.1.02,27.24,16.72,18.88,30.86-4.11,6.94-10.57,9.81-18.31,10.29-1.99.12-3.99.07-5.99.07-53.4,0-106.79-.07-160.19.04-29.13.06-52,18.5-58.47,46.88-1.07,4.69-1.56,9.5-1.56,14.34,0,78-.01,155.99.01,233.99,0,13.77,8.41,23.09,20.31,22.69,5.64-.19,10.12-2.9,14.18-6.54,9.91-8.88,19.91-17.65,29.69-26.67,5.07-4.67,10.78-6.72,17.64-6.71,69.36.08,138.73.07,208.09.04,29.18-.01,52.62-18.64,59.1-46.94,1.11-4.85,1.6-9.83,1.6-14.84-.01-13.97-.05-27.94.02-41.91.06-11.87,8.79-20.86,20.18-20.93,11.38-.07,20.33,8.93,20.39,20.72.08,15.96.11,31.93-.01,47.89-.35,45.94-37.21,88.49-82.61,95.48-7.73,1.19-15.5,1.8-23.33,1.79-63.88-.03-127.75.02-191.63-.1-4.46,0-7.94,1.1-11.2,4.15-7.04,6.59-14.28,12.97-21.56,19.3-17.68,15.38-37.87,20.6-60.27,13.02-22.73-7.69-36.05-24.14-40.63-47.6-.66-3.39-.56-6.95-.56-10.43-.04-40.08-.02-80.16-.02-120.24Z"/>
      <path class="cls-1" d="m132.73,244.07c-11.69,0-21,.19-30.3-.04-13.65-.34-22.28-8.68-22.18-21.07.09-10.66,8.23-19.77,18.96-19.96,20.77-.36,41.55-.32,62.32-.03,10.35.15,18.72,8.8,19.17,18.76.51,11.24-6.2,20.03-17,21.66-11.06,1.67-22.24.23-30.97.68Z"/>
      <path class="cls-1" d="m130.5,323.89c-9.47,0-18.96.27-28.42-.06-17.26-.6-27.2-16.29-19.44-30.43,3.74-6.82,9.71-10.56,17.43-10.63,20.28-.19,40.55-.2,60.83,0,10.47.1,19.08,8.3,19.79,18.16.83,11.67-6,20.5-17.32,22.4-1.15.19-2.3.49-3.45.49-9.81.04-19.61.02-29.42.02v.05Z"/>
    </g>
  </g>
</svg>