<?xml version="1.0" encoding="UTF-8"?>
<svg id="Layer_1" data-name="Layer 1" xmlns="http://www.w3.org/2000/svg" viewBox="0 0 512 512">
  <path d="m117.47,52.71c0-11.2-.06-21.34.01-31.47C117.58,8.29,124.52.25,135.67,0c11.49-.26,18.94,7.96,19.11,21.33.12,10.13.02,20.25.02,30.87h202.37c0-10.29-.08-20.38.02-30.47C357.33,8.23,364.48,0,375.89.02c11.43.01,18.53,8.25,18.62,21.73.06,9.87.01,19.73.01,30.96,9.73,0,18.89,0,28.06,0,12.01,0,24.01-.06,36.02.02,22.19.14,36.46,14.34,36.64,36.72.17,21.31.05,42.62.05,63.93,0,106.25,0,212.49,0,318.74,0,26.62-13.2,39.89-39.69,39.89-132.96,0-265.91,0-398.87,0-27.1,0-40.06-13.04-40.06-40.42-.02-125.75-.02-251.51,0-377.26,0-29,12.7-41.6,41.73-41.6,19.19,0,38.39,0,59.05,0ZM45.41,190.1c0,3.89,0,7.12,0,10.35,0,87.95,0,175.9,0,263.85,0,15.62,3.32,18.94,18.94,18.94,127.87,0,255.75,0,383.62,0,15.15,0,18.6-3.39,18.6-18.35.01-88.25,0-176.5,0-264.75,0-3.2,0-6.39,0-10.05H45.41Zm109.39-107.01c0,6.8.22,12.64-.05,18.46-.54,11.72-8.64,19.68-19.34,19.32-10.31-.35-17.63-8.34-17.91-19.72-.14-5.77-.02-11.54-.02-18.64-13.01,12.66-13.22,29.9-1.95,41.28,11.56,11.68,30.74,11.34,41.78-.74,10.51-11.5,9.9-28.83-2.51-39.96Zm202.4-.04c-9.93,8.95-12.46,20.72-7.79,31.73,4.91,11.56,16.11,18.4,28.69,17.53,12.3-.86,22.77-9.66,25.73-21.64,2.77-11.2-.49-21.09-9.33-26.77,0,5.74.09,11.08-.02,16.42-.25,12.56-7.73,20.67-18.86,20.57-10.56-.09-18-8.19-18.4-20.25-.18-5.52-.03-11.05-.03-17.59Z"/>
  <path d="m214.31,279.31c-6.29,0-12.59.09-18.87-.03-6.14-.12-9.47-3.46-9.54-9.55-.14-11.98-.11-23.97-.01-35.95.05-6.2,3.58-9.48,9.56-9.58,11.98-.2,23.97-.13,35.95.01,6.11.07,9.53,3.55,9.64,9.56.21,11.98.3,23.97-.02,35.95-.17,6.37-3.93,9.73-10.53,9.62-5.39-.09-10.79-.02-16.18-.03Z"/>
  <path d="m326.12,252.1c0,5.69.03,11.38,0,17.08-.04,6.53-3.29,10.07-9.9,10.11-11.68.06-23.37-.03-35.05.02-6.7.03-10.08-3.55-10.21-9.9-.24-11.68-.21-23.37-.04-35.05.1-6.34,3.39-10.12,10.03-10.16,11.68-.08,23.37-.12,35.05,0,7,.07,10.3,3.85,10.18,10.83-.1,5.69-.02,11.38-.02,17.08h-.03Z"/>
  <path d="m411.15,252.27c0,5.99.09,11.97-.03,17.96-.11,5.78-3.32,8.93-8.99,9.01-12.27.17-24.54.18-36.81,0-5.69-.08-8.88-3.4-8.93-9.11-.11-12.27-.07-24.54.03-36.81.05-5.81,3.37-8.96,8.98-9.05,12.27-.2,24.54-.23,36.81.04,6.12.14,9.06,3.85,8.97,10-.08,5.98-.02,11.97-.03,17.96Z"/>
  <path d="m155.67,252.56c.03,28.89,2.39,26.89-26.44,26.77-6.29-.03-12.57.06-18.86-.04-6.11-.1-9.49-3.21-9.52-9.43-.07-11.97-.05-23.95-.03-35.92,0-6.78,3.82-9.72,10.21-9.76,11.07-.07,22.15.04,33.22-.08,7.81-.08,11.68,3.43,11.45,11.41-.16,5.68-.03,11.37-.03,17.06Z"/>
  <path d="m297.91,449.22c-5.39,0-10.78-.11-16.17.03-7.64.19-10.89-3.82-10.9-11.04-.03-10.78,0-21.55-.02-32.33-.01-7.6,3.22-11.73,11.35-11.56,11.07.23,22.15.15,33.23.04,7.58-.07,10.87,3.67,10.8,11.05-.1,10.78-.2,21.56,0,32.33.15,7.86-3.26,11.73-11.23,11.55-5.69-.13-11.38-.02-17.06-.02v-.05Z"/>
  <path d="m213.18,364.31c-5.39,0-10.78-.08-16.17.02-7.34.14-11.23-3.14-11.2-10.71.05-11.38.01-22.75.03-34.13.01-6.54,3.2-10.07,9.85-10.1,11.68-.06,23.35-.03,35.03-.06,6.57-.02,10.2,3.29,10.31,9.77.2,11.67.2,23.35.04,35.03-.1,6.89-3.79,10.35-10.83,10.2-5.69-.13-11.38-.03-17.06,0Z"/>
  <path d="m213.95,394.37c5.39,0,10.78.14,16.16-.03,7.62-.24,10.98,3.64,11.01,10.91.04,11.08.06,22.15-.01,33.23-.05,7.32-3.65,10.91-11.18,10.79-11.07-.18-22.15-.07-33.23,0-7.43.05-11-3.43-10.91-10.96.14-11.07.1-22.15.03-33.23-.05-7.53,3.62-10.94,11.07-10.74,5.68.15,11.37.03,17.06.03Z"/>
  <path d="m298.55,364.28c-5.69,0-11.37-.06-17.06.02-6.56.09-10.38-3.14-10.53-9.57-.28-11.96-.23-23.94.01-35.91.12-5.96,3.46-9.42,9.67-9.44,11.97-.03,23.94-.06,35.91.04,6.71.06,9.62,3.86,9.6,10.33-.03,11.37-.03,22.75-.01,34.12,0,7.05-3.58,10.44-10.53,10.44-5.69,0-11.37,0-17.06-.02Z"/>
  <path d="m100.77,336.89c.06-30.18-2.87-27.56,27.37-27.56,30.21,0,27.53-2.75,27.52,27.4,0,30.29,2.68,27.53-27.38,27.57-5.68,0-11.37-.09-17.05-.02-7.05.09-10.53-3.25-10.45-10.35.07-5.68.01-11.37-.01-17.05Z"/>
  <path d="m356.35,336.36c0-5.98-.1-11.96.03-17.94.12-5.76,3.31-8.93,8.99-9,12.26-.15,24.52-.16,36.78.02,6.23.09,9.04,3.77,9.02,9.88-.04,11.66,0,23.33,0,34.99,0,6.61-3.27,9.97-9.9,9.97-11.66.01-23.33-.02-34.99,0-6.7.01-9.87-3.45-9.92-9.98-.05-5.98,0-11.96-.01-17.94Z"/>
  <path d="m155.63,422.37c0,5.68.02,11.36,0,17.04-.04,6.65-3.49,9.82-10.06,9.82-11.66,0-23.32.02-34.99,0-6.64-.01-9.82-3.42-9.8-10.04.04-11.66,0-23.32.01-34.99,0-6.66,3.42-9.84,10.03-9.81,11.66.04,23.32.05,34.99.01,6.76-.02,9.8,3.51,9.82,10.02.02,5.98,0,11.96,0,17.94Z"/>
</svg>