<?xml version="1.0" encoding="UTF-8"?>
<svg id="Layer_2" data-name="Layer 2" xmlns="http://www.w3.org/2000/svg" viewBox="0 0 512 512">
  <path d="m459.48,0H52.52C23.51,0,0,23.51,0,52.52v406.97c0,29,23.51,52.52,52.52,52.52h406.97c29,0,52.52-23.51,52.52-52.52V52.52c0-29-23.51-52.52-52.52-52.52ZM166.91,354.56l-30.26,23.53-76.51-122.09,76.51-122.09,30.26,23.54-60.72,98.55,60.72,98.56Zm69.73,22.61h-43.7l75.33-228.57h43.7l-75.34,228.57Zm138.71.92l-30.26-23.53,60.72-98.56-60.72-98.55,30.26-23.54,76.51,122.09-76.51,122.09Z"/>
</svg>