<?xml version="1.0" encoding="UTF-8"?><svg id="Layer_1" xmlns="http://www.w3.org/2000/svg" viewBox="0 0 512 512"><defs><style>.cls-1{fill:#eee;}.cls-2{fill:#fff;}.cls-3{fill:#4070f8;}.cls-4{fill:#3956ec;}</style></defs><path class="cls-4" d="m256.25,511.97h-.75c-.35-.34-.84-.35-1.26-.47-18.53-5.16-37.06-10.31-55.59-15.45-21.17-5.88-42.35-11.75-63.52-17.63-8.69-2.41-17.37-4.82-26.05-7.26-.48-.13-1.15-.03-1.24-.92-.42-4.01-.8-8.02-1.14-12.03-.39-4.67-.84-9.34-1.2-14.02-.25-3.25-.66-6.48-.87-9.73-.18-2.93-.54-5.84-.8-8.76-.29-3.21-.46-6.44-.91-9.64-.39-2.77-.42-5.6-.67-8.39-.25-2.8-.72-5.59-.83-8.39-.15-3.82-.69-7.61-.96-11.41-.26-3.67-.83-7.31-1.04-10.98-.17-2.87-.43-5.73-.69-8.58-.42-4.59-.91-9.18-1.27-13.77-.37-4.75-.96-9.48-1.24-14.24-.16-2.76-.67-5.51-.8-8.27-.18-3.81-.72-7.58-.94-11.38-.17-2.8-.58-5.59-.83-8.39-.25-2.84-.42-5.68-.67-8.52-.24-2.72-.7-5.42-.8-8.14-.14-3.91-.67-7.77-.99-11.66-.29-3.58-.67-7.16-.99-10.73-.25-2.86-.47-5.72-.7-8.58-.38-4.58-.99-9.16-1.29-13.74-.3-4.63-.9-9.24-1.18-13.87-.32-5.34-.92-10.65-1.4-15.98-.34-3.76-.66-7.52-1.01-11.28-.22-2.29-.64-4.57-.69-6.87-.08-3.33-.57-6.61-.84-9.92-.26-3.21-.6-6.43-.87-9.64-.3-3.62-.77-7.24-.94-10.88-.15-3.4-.58-6.78-.89-10.17-.55-6.11-1.09-12.23-1.65-18.34-.25-2.72-.71-5.42-.81-8.15-.16-4.69-.9-9.32-1.18-13.99-.22-3.72-.76-7.41-1.09-11.12-.26-2.84-.39-5.68-.63-8.52-.13-1.52-.18-1.52,1.29-1.52.33,0,.67,0,1,0,119.43,0,238.87,0,358.3,0,.58,0,1.16-.06,1.73-.09v2c-.36.22-.22.59-.25.9-.32,3.35-.61,6.69-.93,10.04-.34,3.52-.85,7.04-1.02,10.57-.14,2.9-.5,5.78-.72,8.67-.28,3.72-.76,7.42-1.02,11.13-.39,5.71-1.1,11.39-1.5,17.1-.25,3.6-.73,7.19-.99,10.79-.29,3.85-.76,7.68-.99,11.53-.17,2.73-.46,5.46-.79,8.18-.36,2.91-.47,5.84-.71,8.77-.22,2.69-.59,5.37-.77,8.05-.44,6.52-1.11,13.02-1.68,19.53-.33,3.71-.76,7.42-1.04,11.13-.3,3.89-.75,7.76-1,11.66-.21,3.23-.57,6.45-.81,9.68-.14,1.9-.47,3.78-.56,5.69-.11,2.47-.54,4.93-.65,7.4-.1,2.2-.48,4.36-.6,6.56-.18,3.21-.74,6.4-.91,9.6-.35,6.52-1.17,12.99-1.66,19.5-.28,3.8-.84,7.58-1.08,11.38-.18,2.87-.45,5.72-.71,8.58-.33,3.62-.74,7.23-1.07,10.85-.27,3.05-.42,6.1-.74,9.14-.27,2.59-.52,5.19-.71,7.78-.26,3.63-.7,7.24-.94,10.88-.41,6.18-1.07,12.33-1.62,18.5-.55,6.11-1.09,12.23-1.66,18.34-.43,4.57-1.06,9.13-1.29,13.71-.23,4.6-.93,9.15-1.15,13.75-.16,3.45-.6,6.88-.91,10.32-.55,6.08-1.09,12.17-1.65,18.25-.26,2.85-.69,5.7-.78,8.55-.04,1.37-.39,1.9-1.73,2.26-22.51,6.2-45,12.45-67.49,18.69-22.02,6.11-44.03,12.2-66.05,18.31-4.32,1.2-8.61,2.46-12.92,3.69Zm-.25-198.24c0,23.76,0,47.51,0,71.27,0,.37-.03.75-.05,1.12-.29-.05-.58-.09-.86-.16-16.28-4.4-32.55-8.81-48.84-13.19-.78-.21-.93-.6-.98-1.31-.24-3.18-.52-6.37-.81-9.55-.72-8.11-1.48-16.22-2.16-24.34-.09-1.01-.37-1.32-1.4-1.32-8.95.04-17.9.02-26.84.02-5.45,0-10.9,0-16.36,0-.7,0-1.17-.02-1.07.97.44,4.37.81,8.74,1.2,13.11.5,5.54,1,11.09,1.49,16.63.42,4.71.84,9.43,1.26,14.14.33,3.68.66,7.36.99,11.03.43,4.79.87,9.57,1.25,14.37.06.79.32,1.15,1.09,1.37,20.26,5.6,40.51,11.22,60.75,16.85,10.44,2.9,20.88,5.83,31.32,8.74,0,15.2.02,30.41-.03,45.61,0,1.23.33,1.36,1.39,1.06,7.62-2.13,15.25-4.2,22.87-6.33,10.49-2.93,20.97-5.9,31.46-8.82,9.3-2.58,18.61-5.09,27.91-7.65,11.34-3.13,22.67-6.29,34-9.42,1.49-.41,2.68-.68,2.66-2.87-.03-3.5.56-7,.87-10.5.2-2.18.35-4.37.54-6.56.31-3.38.65-6.75.95-10.12.2-2.18.34-4.37.54-6.56.31-3.46.65-6.91.97-10.37.19-2.14.35-4.29.54-6.43.31-3.46.65-6.92.96-10.37.19-2.14.35-4.29.55-6.43.31-3.38.65-6.75.95-10.12.2-2.27.34-4.54.55-6.81.3-3.25.66-6.5.95-9.75.21-2.31.29-4.63.55-6.93.39-3.54.71-7.08.97-10.62.15-2.06.34-4.12.53-6.18.32-3.5.65-7,.96-10.5.19-2.1.35-4.21.55-6.31.31-3.38.65-6.75.95-10.12.2-2.18.34-4.37.54-6.56.31-3.5.65-7,.96-10.5.19-2.18.35-4.37.55-6.56.31-3.33.65-6.66.95-10,.2-2.23.34-4.46.54-6.68.31-3.5.65-7,.96-10.5.19-2.1.35-4.21.54-6.31.31-3.33.65-6.66.95-10,.2-2.23.34-4.46.54-6.68.31-3.5.65-7,.96-10.5.19-2.1.35-4.21.54-6.31.31-3.42.65-6.83.95-10.25.2-2.23.3-4.46.54-6.68.39-3.54.69-7.08.97-10.62.16-2.06.4-4.12.55-6.18.23-3.3.63-6.58.93-9.88.21-2.27.34-4.54.54-6.81.31-3.54.65-7.08.97-10.62.19-2.06.35-4.12.54-6.18.31-3.38.62-6.75.97-10.12.12-1.16-.29-1.46-1.44-1.46-48.37.03-96.74.03-145.11,0-1.02,0-1.42.36-1.54,1.26-.04.33-.05.66-.05,1,0,14.33,0,28.66,0,42.99-.54.02-1.08.05-1.62.05-36.55,0-73.09,0-109.64,0q-2.36,0-2.18,2.4c.03.46,0,.92.04,1.37.17,2.18.32,4.36.53,6.53.22,2.33.51,4.66.72,7,.2,2.22.21,4.46.53,6.65.45,3.14.57,6.31.94,9.45.37,3.19.49,6.41.77,9.61.22,2.44.25,2.44,2.77,2.44,35.17,0,70.35,0,105.52,0,.54,0,1.08.03,1.62.05,0,15.46,0,30.92,0,46.38-.5.02-1,.06-1.49.06-34.05,0-68.09,0-102.14,0-.33,0-.67.03-1,0-.68-.08-.84.23-.81.87.09,1.85.32,3.69.49,5.54.72,7.56,1.36,15.13,2.04,22.69.44,4.9.91,9.8,1.29,14.71.1,1.28.48,1.68,1.85,1.67,32.71-.05,65.43-.04,98.14-.03.54,0,1.08.05,1.62.07Z"/><path d="m280.98.02c.23.9.1,1.82.1,2.73.02,5.33-.02,10.66.03,16,.01,1.01-.19,1.31-1.26,1.3-9.82-.05-19.65-.01-29.47-.05-1.04,0-1.32.24-1.29,1.29.08,2.73.02,2.74,2.69,2.74,9.37,0,18.73.01,28.1-.02.94,0,1.24.19,1.23,1.2-.04,14.54-.03,29.08,0,43.62,0,.95-.2,1.23-1.2,1.23-17.53-.03-35.05-.03-52.58,0-.98,0-1.23-.25-1.22-1.23.05-6.21.05-12.41,0-18.62,0-1.04.34-1.2,1.26-1.19,9.87.03,19.73,0,29.6.04.9,0,1.19-.16,1.17-1.13-.06-2.88-.01-2.89-2.9-2.89-9.28,0-18.57-.02-27.85.03-1.06,0-1.28-.27-1.28-1.3.04-14.12.03-28.24.02-42.37,0-.45.1-.92-.1-1.35h54.95Z"/><path d="m346.93.02c.23.9.1,1.82.1,2.73.02,5.33-.02,10.66.03,16,.01,1.01-.19,1.31-1.26,1.3-9.82-.05-19.65-.01-29.47-.05-1.04,0-1.32.24-1.29,1.29.08,2.73.02,2.74,2.69,2.74,9.37,0,18.73.01,28.1-.02.94,0,1.24.19,1.23,1.2-.04,14.54-.03,29.08,0,43.62,0,.95-.2,1.23-1.2,1.23-17.53-.03-35.05-.03-52.58,0-.98,0-1.23-.25-1.22-1.23.05-6.21.05-12.41,0-18.62,0-1.04.34-1.2,1.26-1.19,9.87.03,19.73,0,29.6.04.9,0,1.19-.16,1.17-1.13-.06-2.88-.01-2.89-2.9-2.89-9.28,0-18.57-.02-27.85.03-1.06,0-1.28-.27-1.28-1.3.04-14.12.03-28.24.02-42.37,0-.45.1-.92-.1-1.35h54.95Z"/><path d="m215.04.02c.04.37.11.74.11,1.1,0,6.91-.02,13.83.03,20.74,0,1.06-.37,1.17-1.26,1.17-9.82-.03-19.64,0-29.47-.04-1.02,0-1.31.21-1.3,1.28.05,6.87.05,13.74,0,20.62,0,.95.25,1.15,1.17,1.15,9.86-.04,19.73,0,29.59-.05,1.08,0,1.26.3,1.26,1.3-.05,6.83-.05,13.66,0,20.49,0,1.08-.31,1.26-1.31,1.25-17.48-.03-34.96-.03-52.44,0-1.08,0-1.26-.32-1.26-1.32.03-22.07.02-44.15.02-66.22,0-.49.11-1-.1-1.48,18.32,0,36.64,0,54.95,0Z"/><path class="cls-3" d="m256.01,176.23c0-14.33,0-28.66,0-42.99,0-.33,0-.67.05-1,.11-.9.52-1.26,1.54-1.26,48.37.03,96.74.03,145.11,0,1.15,0,1.56.3,1.44,1.46-.35,3.37-.66,6.75-.97,10.12-.19,2.06-.35,4.12-.54,6.18-.32,3.54-.66,7.08-.97,10.62-.2,2.27-.33,4.54-.54,6.81-.3,3.29-.7,6.58-.93,9.88-.14,2.07-.39,4.12-.55,6.18-.28,3.55-.58,7.09-.97,10.62-.24,2.22-.35,4.46-.54,6.68-.3,3.42-.64,6.83-.95,10.25-.19,2.1-.35,4.21-.54,6.31-.32,3.5-.66,7-.96,10.5-.2,2.23-.34,4.46-.54,6.68-.3,3.33-.64,6.67-.95,10-.19,2.1-.35,4.21-.54,6.31-.32,3.5-.65,7-.96,10.5-.2,2.23-.34,4.46-.54,6.68-.3,3.33-.64,6.67-.95,10-.2,2.18-.35,4.37-.55,6.56-.31,3.5-.65,7-.96,10.5-.19,2.18-.34,4.37-.54,6.56-.3,3.38-.64,6.75-.95,10.12-.19,2.1-.36,4.21-.55,6.31-.32,3.5-.65,7-.96,10.5-.19,2.06-.38,4.12-.53,6.18-.25,3.55-.58,7.09-.97,10.62-.25,2.3-.34,4.62-.55,6.93-.29,3.25-.65,6.5-.95,9.75-.21,2.27-.34,4.54-.55,6.81-.3,3.38-.64,6.75-.95,10.12-.2,2.14-.36,4.29-.55,6.43-.31,3.46-.65,6.91-.96,10.37-.19,2.14-.35,4.29-.54,6.43-.31,3.46-.66,6.91-.97,10.37-.2,2.18-.34,4.37-.54,6.56-.31,3.38-.65,6.75-.95,10.12-.2,2.18-.35,4.37-.54,6.56-.31,3.5-.9,7-.87,10.5.02,2.19-1.17,2.46-2.66,2.87-11.34,3.14-22.66,6.29-34,9.42-9.3,2.57-18.62,5.07-27.91,7.65-10.5,2.91-20.97,5.89-31.46,8.82-7.62,2.12-15.25,4.2-22.87,6.33-1.06.3-1.4.17-1.39-1.06.04-15.2.03-30.41.03-45.61.1-.08.2-.15.29-.23.24-.04.5-.07.73-.14,13.73-3.8,27.46-7.61,41.19-11.42,16.53-4.58,33.06-9.18,49.6-13.73.93-.26,1.26-.71,1.31-1.62.08-1.28.12-2.55.25-3.83.59-5.69,1.04-11.4,1.55-17.1.49-5.45.99-10.9,1.47-16.35.43-4.78.86-9.56,1.26-14.34.2-2.35.19-4.73.53-7.06.47-3.24.63-6.51.96-9.77.33-3.25.35-6.54.8-9.77.58-4.16.74-8.34,1.19-12.5.35-3.25.36-6.53.81-9.76.71-5.14.84-10.32,1.44-15.46.43-3.69.68-7.4,1.01-11.1.42-4.62.84-9.24,1.25-13.87.33-3.71.67-7.42,1-11.13.59-6.61,1.19-13.23,1.75-19.84.28-3.25.32-6.54.79-9.76.61-4.14.66-8.33,1.18-12.47.46-3.73.7-7.48,1.03-11.23.42-4.79.85-9.58,1.27-14.37.26-2.89.51-5.79.77-8.68.16-1.69.17-1.69-1.57-1.69-36.76,0-73.52,0-110.28,0-.54,0-1.08.03-1.62.05l.02-.11Z"/><path class="cls-1" d="m256.29,433.26c-.1.08-.2.15-.29.23-10.44-2.91-20.88-5.84-31.32-8.74-20.25-5.63-40.5-11.25-60.75-16.85-.77-.21-1.03-.57-1.09-1.37-.38-4.79-.82-9.58-1.25-14.37-.33-3.68-.66-7.36-.99-11.03-.42-4.71-.84-9.43-1.26-14.14-.49-5.54-.99-11.09-1.49-16.63-.39-4.37-.76-8.75-1.2-13.11-.1-.99.37-.97,1.07-.97,5.45.01,10.9,0,16.36,0,8.95,0,17.9.02,26.84-.02,1.03,0,1.31.31,1.4,1.32.68,8.12,1.44,16.23,2.16,24.34.28,3.18.57,6.36.81,9.55.05.71.2,1.1.98,1.31,16.28,4.38,32.56,8.79,48.84,13.19.28.08.57.11.86.16.01.04.03.09.05.13,0,15.16,0,30.32.01,45.48,0,.51-.22,1.1.28,1.53Z"/><path class="cls-1" d="m256.01,221.78c-.54-.02-1.08-.05-1.62-.05-35.17,0-70.35,0-105.52,0-2.51,0-2.55,0-2.77-2.44-.28-3.2-.4-6.42-.77-9.61-.37-3.15-.49-6.31-.94-9.45-.31-2.2-.33-4.44-.53-6.65-.21-2.33-.5-4.66-.72-7-.2-2.17-.36-4.35-.53-6.53-.03-.46,0-.92-.04-1.37q-.17-2.4,2.18-2.4c36.55,0,73.09,0,109.64,0,.54,0,1.08-.03,1.62-.05,0,0-.02.11-.02.11,0,15.12,0,30.23,0,45.35,0,0,.02.1.02.1Z"/><path class="cls-1" d="m256,313.73c-.54-.02-1.08-.07-1.62-.07-32.71,0-65.43-.01-98.14.03-1.36,0-1.75-.4-1.85-1.67-.38-4.91-.85-9.81-1.29-14.71-.67-7.56-1.32-15.13-2.04-22.69-.17-1.84-.4-3.68-.49-5.54-.03-.64.12-.94.81-.87.33.04.67,0,1,0,34.05,0,68.09,0,102.14,0,.5,0,1-.04,1.49-.06l-.02.11c0,15.1,0,30.2-.01,45.3.02.05.02.11.02.16Z"/><path class="cls-3" d="m256,386.25s-.03-.08-.05-.13c.02-.37.05-.75.05-1.12,0-23.76,0-47.51,0-71.27,0-.05,0-.11-.02-.16.45.03.91.08,1.36.08,7.66,0,15.32,0,22.98,0,10.03,0,20.06.02,30.1-.03,1.16,0,1.42.33,1.31,1.41-.28,2.84-.54,5.68-.83,8.51-.34,3.24-.44,6.5-.9,9.74-.39,2.73-.43,5.52-.68,8.27-.34,3.67-.86,7.33-1.07,11.01-.17,2.98-.54,5.94-.74,8.92-.21,3.08-.61,6.16-.75,9.25-.06,1.34-.48,1.91-1.82,2.26-12.73,3.37-25.44,6.82-38.15,10.26-3.6.97-7.19,2-10.79,3Z"/><path class="cls-3" d="m256.02,268.17c0-15.46,0-30.92,0-46.38,0,0-.02-.1-.02-.1.5.02,1,.05,1.49.05,20.23,0,40.46,0,60.69,0,.33,0,.67.02,1,0,.52-.03.72.11.67.71-.53,5.67-1.03,11.33-1.55,17-.25,2.73-.59,5.45-.77,8.18-.17,2.44-.39,4.88-.63,7.3-.39,3.98-.6,7.97-1.11,11.94-.17,1.33-.57,1.38-1.6,1.38-18.9-.02-37.8-.02-56.7-.01-.5,0-1,.03-1.49.05l.02-.11Z"/><path class="cls-2" d="m255.99,268.28c.5-.02,1-.05,1.49-.05,18.9,0,37.8,0,56.7.01,1.03,0,1.43-.04,1.6-1.38.51-3.97.71-7.96,1.11-11.94.24-2.42.47-4.87.63-7.3.19-2.72.52-5.45.77-8.18.52-5.67,1.01-11.34,1.55-17,.06-.6-.15-.74-.67-.71-.33.02-.67,0-1,0-20.23,0-40.46,0-60.69,0-.5,0-1-.03-1.49-.05,0-15.12,0-30.23,0-45.35.54-.02,1.08-.05,1.62-.05,36.76,0,73.52,0,110.28,0,1.74,0,1.72,0,1.57,1.69-.27,2.89-.52,5.78-.77,8.68-.42,4.79-.84,9.58-1.27,14.37-.33,3.74-.56,7.5-1.03,11.23-.51,4.15-.57,8.33-1.18,12.47-.47,3.22-.51,6.51-.79,9.76-.57,6.61-1.17,13.23-1.75,19.84-.33,3.71-.66,7.42-1,11.13-.42,4.62-.84,9.24-1.25,13.87-.33,3.7-.58,7.41-1.01,11.1-.61,5.14-.73,10.33-1.44,15.46-.45,3.23-.46,6.52-.81,9.76-.45,4.16-.61,8.35-1.19,12.5-.45,3.23-.47,6.52-.8,9.77-.33,3.25-.49,6.52-.96,9.77-.34,2.33-.33,4.71-.53,7.06-.4,4.78-.83,9.56-1.26,14.34-.49,5.45-.99,10.9-1.47,16.35-.51,5.7-.96,11.41-1.55,17.1-.13,1.28-.18,2.56-.25,3.83-.05.91-.38,1.36-1.31,1.62-16.54,4.55-33.07,9.14-49.6,13.73-13.73,3.81-27.46,7.61-41.19,11.42-.24.07-.49.09-.73.14-.5-.43-.28-1.01-.28-1.53-.01-15.16-.01-30.32-.01-45.48,3.59-1,7.18-2.02,10.79-3,12.71-3.44,25.42-6.88,38.15-10.26,1.34-.35,1.75-.92,1.82-2.26.15-3.09.54-6.16.75-9.25.2-2.98.57-5.94.74-8.92.21-3.68.73-7.34,1.07-11.01.25-2.76.29-5.54.68-8.27.46-3.24.56-6.5.9-9.74.3-2.83.55-5.68.83-8.51.11-1.08-.15-1.41-1.31-1.41-10.03.05-20.06.03-30.1.03-7.66,0-15.32,0-22.98,0-.45,0-.91-.05-1.36-.08,0-15.1,0-30.2.01-45.3Z"/></svg>