<?xml version="1.0" encoding="UTF-8"?><svg id="Layer_1" xmlns="http://www.w3.org/2000/svg" viewBox="0 0 551 266.8"><defs><style>.cls-1{fill:#0067b8;}.cls-2{fill:#fff;}.cls-3{fill:#818286;}</style></defs><path class="cls-2" d="m550.91,229.36c-.34-4.88-1.6-9.37-3.71-13.34.52-1.03.95-2.12,1.29-3.25,1.69-5.59.95-11.52-2.11-16.72-5.23-8.88-13.72-14.9-23.91-16.94-4.01-.8-7.48-1.18-10.92-1.18-1.91,0-3.82.12-5.65.36-5.86.77-10.94,2.36-15.43,4.82-2.78-1.89-6.82-3.65-12.22-3.65-.09,0-.18,0-.27,0,.36-1.86.5-3.79.38-5.81.01-31.59.01-63.18,0-94.76,1.27,0,2.54,0,3.81,0,5.68,0,11.35,0,17.09.02,7.52,0,12.44-3.34,15.23-6.15,2.29-2.3,6.13-7.33,6.1-15.21-.04-11.34-.04-22.7,0-33.77.03-7.59-3.31-12.53-6.11-15.34-2.3-2.3-7.34-6.17-15.32-6.17-32.5.03-65,.03-97.51.03h-16.69c-.38,0-.76,0-1.15,0h-.41c-2.43,0-4.79.4-6.99,1.15-4.85-1.38-9.68-2.26-14.37-2.62-.62-.05-1.23-.11-1.85-.17-1.4-.14-3.05-.31-4.91-.38-1.85-.24-3.44-.28-4.58-.28-.61,0-1.21.01-1.81.03-.29,0-.57.02-.86.02-.24,0-.48,0-.72-.02-.6-.02-1.2-.03-1.8-.03-1.67,0-3.19.11-4.67.32-.83,0-2,.02-3.42.17-.91.02-1.82.1-2.72.23-1.22.05-3.08.21-5.27.8-.15.02-.31.04-.47.06-7.77,1.12-15.18,3.29-22.04,6.45-14.57,6.71-25.11,16.87-31.31,30.21-1.68,3.62-2.97,7.47-3.84,11.45-.53-1.58-1.06-3.15-1.58-4.73l-.54-1.63c-1.55-4.66-3.1-9.31-4.62-13.98-1.26-3.86-2.54-7.92-3.92-12.4-2.87-9.31-11.01-15.32-20.79-15.32-9.01.02-18.03.03-27.04.03s-17.39,0-26.13-.02c-3.07,0-5.98.61-8.62,1.73-2.11-.71-4.35-1.09-6.64-1.09-.37,0-.74,0-1.11.03H59.91c-2.79,0-10.19,0-16.37,6.24-6.18,6.24-6.11,13.69-6.08,16.47v.28c0,49.61,0,99.22,0,148.83-.05,1.06-.09,3,.37,5.39-.16,0-.32,0-.48,0-5.37,0-10.73,0-16.17-.03-7.83,0-12.83,3.85-15.11,6.14C3.78,187.9-.04,192.92,0,200.79c.03,5.5.02,10.99.02,16.49v9.27c0,5.95,0,11.9-.01,17.85-.02,7.45,3.27,12.33,6.05,15.11,3.92,3.93,9.23,6.1,14.96,6.1h.07c5.4-.02,10.81-.02,16.21-.02s10.83,0,16.28.02h0c3.06,0,5.99-.63,8.66-1.81,2.68,1.18,5.63,1.82,8.7,1.82.31,0,.62,0,.95-.02.79-.03,1.59-.05,2.38-.05.74,0,1.49.01,2.24.05.35.01.68.02.99.02,4.86,0,9.42-1.56,13.09-4.43,5.12,3.79,10.44,4.48,13.64,4.48.63,0,1.26-.03,1.9-.08.4.02.81.03,1.21.03h0c5.3,0,10.25-1.93,14.07-5.41,3.84,3.48,8.82,5.4,14.17,5.4.24,0,.49,0,.77-.01.86-.03,1.72-.04,2.58-.04.79,0,1.59.01,2.39.04.31.01.61.02.89.02,5.37,0,10.36-1.91,14.2-5.36,3.83,3.45,8.79,5.36,14.13,5.36.23,0,.46,0,.69-.01.84-.02,1.69-.03,2.53-.03.67,0,3.51.02,4.26.02h12.14c4.24,0,8.48,0,12.71.02h.13c3,0,5.58-.56,7.76-1.39,2.38.89,4.94,1.38,7.59,1.38h.48c1-.02,2-.04,2.99-.04.72,0,1.45,0,2.18.04.34.01.67.02.98.02,4.34,0,8.44-1.22,11.88-3.51,3.53,2.27,7.66,3.5,12,3.5h.44c1.02-.02,2.05-.03,3.07-.03,0,0,3.45,0,3.81,0,.45.03.96.05,1.51.05,1.98,0,3.91-.3,5.76-.84,1.88.53,3.86.82,5.89.82.24,0,.48,0,.73-.01.87-.03,1.74-.04,2.61-.04s1.79.01,2.7.04c.22,0,.43,0,.63,0,5.77,0,11.12-2.19,15.05-6.17,2.17-2.2,3.8-4.83,4.8-7.72.92-.14,1.91-.34,2.96-.62.51-.14,1-.29,1.49-.44,1.26,4.29,3.59,7.22,5.18,8.82,3.93,3.96,9.28,6.14,15.04,6.14.27,0,.55,0,.84-.01.84-.03,1.68-.04,2.52-.04s1.67.01,2.48.04c.28,0,.55.01.81.01,4.27,0,8.31-1.2,11.72-3.45,3.45,2.24,7.44,3.43,11.67,3.43h.18c1.48-.01,2.97-.01,4.45-.01,0,0,2.83,0,3.61,0,.31.01.65.02,1.01.02h0c1.98,0,3.91-.29,5.74-.82,1.91.54,3.92.83,5.99.83.3,0,.61,0,.92-.02.76-.03,1.53-.04,2.29-.04.85,0,1.7.02,2.56.04.26,0,.52.01.76.01,4.54,0,8.81-1.39,12.34-3.92,3.21,1.76,6.74,3.11,10.56,4.01,3.19.75,6.6,1.11,10.44,1.11,1.04,0,2.12-.02,3.4-.08,7.19-.3,13.44-1.9,19.03-4.86,3.48,2.43,7.66,3.75,12.08,3.75.33,0,.68,0,1.07-.02.36-.02.72-.02,1.08-.02.42,0,.83,0,1.25,0,.55,0,1.09.01,1.64.01h12.76c4.83,0,9.65,0,14.47.03h.14c5.21,0,9.17-1.68,11.94-3.51,1.98,1.01,4.08,1.88,6.3,2.57,5.58,1.73,10.56,2.1,13.75,2.1.2,0,.95,0,.96,0,5.97,0,10.99-.76,15.82-2.39,15.79-5.34,24.9-18.76,23.77-35.02Z"/><g><path class="cls-1" d="m136.02,175.62c.77-2.92,1.86-5.74,2.77-8.62,1.55-4.9,3.05-9.81,4.65-14.7,2.55-7.81,5.18-15.6,7.74-23.41,1.15-3.52,2.1-7.1,3.36-10.58,1.52-4.2,2.54-8.55,4.09-12.73,2.18-5.86,3.99-11.85,5.85-17.81,1.42-4.55,3.1-9.02,4.42-13.62,1.13-3.9,2.41-7.77,3.79-11.61,1.88-5.25,3.61-10.57,5.18-15.92,1.11-3.76,2.61-7.39,3.64-11.16,1.19-4.31,2.83-8.46,4.13-12.72.24-.79.57-1.12,1.48-1.12,17.73.03,35.47.03,53.2,0,.99,0,1.37.34,1.64,1.22,1.31,4.24,2.64,8.47,4.01,12.69,1.71,5.26,3.46,10.5,5.2,15.74,2.23,6.71,4.5,13.41,6.71,20.14,1.88,5.72,3.7,11.47,5.56,17.2.84,2.59,1.74,5.16,2.59,7.75.18.55.4.77,1.04.91,2.71.59,5.49.75,8.16,1.5,4.15,1.17,8.35,2.26,12.35,3.89,6.35,2.58,12.4,5.75,18.09,9.59,3.71,2.5,7.21,5.24,10.62,8.13,2.34,1.99,4.54,4.1,6.67,6.3.15.15.38.27.33.61-.39.2-.64-.16-.95-.28-6.01-2.34-12.11-4.39-18.4-5.83-3.87-.88-7.8-1.52-11.76-1.99-5.35-.63-10.71-.97-16.09-.79-.71.02-1.42.14-2.14.15-.57.01-.59.23-.43.7,1.6,4.71,3.3,9.38,4.72,14.14,1.54,5.16,3.49,10.17,5.11,15.3,1.21,3.84,2.58,7.62,3.75,11.47,1.41,4.64,3.1,9.19,4.56,13.81.72,2.28.65,2.38-1.79,2.18,0-.13-.02-.1-.06,0-9.06,0-18.12,0-27.17,0-1.15-.25-2.29-.25-3.44,0-1.27,0-2.55,0-3.82,0-1.15-.25-2.29-.25-3.44,0-1.5,0-2.99,0-4.49.01-.21-.29-.52-.15-.8-.19-1.01-5.01-2.58-9.88-3.96-14.79-1.33-4.74-2.41-9.55-3.86-14.26-1.21-3.92-2.29-7.89-3.2-11.89-.55-2.41-1.31-4.76-1.92-7.15-.22-.86-.59-1.07-1.48-.7-6.14,2.55-12.01,5.61-17.67,9.09-2.39,1.47-4.62,3.15-6.92,4.74-4.65,3.2-8.68,7.08-12.55,11.13-2.44,2.56-4.66,5.35-6.56,8.35-2.59,4.11-4.87,8.39-6.34,13.05-.25.81-.46,1.63-.69,2.45-.57.06-1.17-.15-1.72.16-1.43,0-2.85,0-4.28,0-1.15-.25-2.29-.25-3.44,0-1.27,0-2.55,0-3.82,0-1.15-.25-2.29-.25-3.44,0-8.61,0-17.22,0-25.83,0-.78-.24-1.56-.24-2.34,0-.17,0-.35-.01-.52-.02-.04-.17-.07-.34-.11-.51Zm63.58-66.82c.35-.11.5-.13.63-.2,7.99-4.02,16.39-6.88,25.05-9.05.77-.19.72-.54.56-1.14-.75-2.81-1.59-5.59-2.3-8.41-1.35-5.39-2.88-10.73-4.33-16.1-.85-3.16-1.69-6.32-2.68-9.44-.81-2.57-1.14-5.27-2.03-7.81-.11-.32-.07-.86-.56-.8-.36.04-.37.51-.46.85-1.27,4.71-2.57,9.41-3.82,14.12-1.34,5.05-2.56,10.13-3.98,15.16-1.07,3.78-1.93,7.62-3.08,11.38-.83,2.69-1.43,5.45-2.14,8.19-.26,1.02-.54,2.03-.86,3.25Z"/><path class="cls-1" d="m353.48,20.24c2.36,0,4.7.36,7.04.53,3.54.27,7.04.94,10.47,1.93.62.18.81.58.93,1.13.9,4.17,2.17,8.23,3.32,12.33,1.33,4.78,2.62,9.58,3.91,14.37.78,2.88,1.52,5.78,2.32,8.86-1.28-.58-2.38-1.1-3.49-1.58-3.12-1.35-6.27-2.64-9.5-3.69-3.08-.99-6.14-2.06-9.33-2.7-4.29-.86-8.53-1.89-12.95-1.74-.17-.11-.34-.14-.51,0-1.08.54-2.28.37-3.41.55-4.64.74-8.03,3.03-9.94,7.42-1.1,2.51-1.48,5.02-.43,7.62,1.42,3.54,4,6.09,7.03,8.24,3.89,2.76,8.14,4.82,12.51,6.68,4.8,2.04,9.69,3.85,14.37,6.19,6.46,3.23,12.71,6.79,18.15,11.62,3.91,3.47,7.09,7.52,9.15,12.33,1.71,3.98,2.85,8.15,3.3,12.49.29,2.77.59,5.55.42,8.34-.21,3.43-.64,6.82-1.47,10.18-3.57,14.49-12.7,24.18-25.94,30.38-4.63,2.17-9.48,3.63-14.48,4.77-3.06.7-6.14.9-9.2,1.35-1.14.17-2.25.61-3.43.28,0,0-.02-.07-.02-.07l-.06.04c-.88.04-1.77.07-2.65.11-1.31-.27-2.62-.27-3.93,0-2.02.05-4.04-.02-6.06-.16-.31-.01-.61-.03-.92-.04-4.77-.12-9.52-.42-14.27-.89-2.87-.29-5.75-.5-8.64-.69-.79-.05-1.31-.36-1.5-1.08-.54-2.09-1.36-4.08-2.06-6.12-1.16-3.4-2.36-6.79-3.55-10.18-1.43-4.11-2.74-8.27-4.35-12.31-1.14-2.86-1.98-5.82-3.05-8.71-.75-2.02-1.49-4.08-2.13-6.46,1.15.54,2.09.94,3.01,1.41,5.05,2.57,10.34,4.54,15.7,6.33,4.2,1.4,8.47,2.6,12.8,3.44,6.16,1.2,12.39,1.89,18.69,1.64,3.62-.15,7.17-.61,10.39-2.42,2.3-1.3,4.09-3.07,4.92-5.65.2-.63.34-1.28.5-1.92.02-.02.07-.04.07-.06,0-.06-.03-.11-.05-.17.01-.6.03-1.2.04-1.8.11-.36.18-.71-.09-1.04-1.54-6.02-6.53-8.35-11.46-10.81-1.99-.99-3.92-2.08-5.95-2.99-2.95-1.31-5.85-2.71-8.82-3.96-2.86-1.21-5.61-2.7-8.4-4.1-5.87-2.96-11.51-6.3-16.46-10.67-3.05-2.69-5.65-5.77-7.81-9.23-1.88-3.02-3.37-6.2-4.35-9.63-1.67-5.8-1.84-11.72-1.72-17.7.05-2.68.47-5.3,1.01-7.87.55-2.62,1.39-5.21,2.54-7.69,4.5-9.68,12.05-16.11,21.54-20.48,5.26-2.42,10.79-3.99,16.53-4.82.73-.11,1.5,0,2.2-.27.93.02,1.85.03,2.69-.46.18-.02.36-.04.54-.06.42.21.83.17,1.23-.03,1.45-.37,2.95-.15,4.42-.31,3.54,0,7.08,0,10.61,0Z"/><path class="cls-1" d="m151.79,85.42c-.85,2.64-1.82,5.24-2.53,7.92-1.06,3.98-2.5,7.83-3.62,11.79-.92,3.25-1.86,6.51-3.04,9.69-.37,1-.63,2.04-.94,3.06-.16.54-.44.51-.81.52,0,0-.06-.04-.06-.04l-.06.04c-.19,0-.38,0-.57,0,0,0-.06-.04-.06-.04l-.06.04c-13.65,0-27.3,0-40.95-.01,0,0-.04-.05-.04-.05l-.05.04c-.59.06-.57.49-.57.92,0,.94.02,1.89.02,2.83,0,16.69,0,33.37,0,50.06,0,.23-.02.45-.03.68-.24.85-.25,1.71,0,2.56-.01.18-.03.36-.04.53-.92.14-1.87-.15-2.78.18-2.41,0-4.81,0-7.22,0-1.15-.25-2.29-.25-3.44,0-1.27,0-2.55,0-3.82,0-1.15-.25-2.29-.25-3.44,0-5.81,0-11.63,0-17.44,0-.88-.31-1.78-.12-2.68-.13-.23-.47-.12-.97-.12-1.45,0-49.76,0-99.52,0-149.28,0-.15,0-.3,0-.45q-.02-2.53,2.46-2.53c36.98,0,73.97,0,110.95,0,.23,0,.46.03.68,0,.94-.13,1.09.24.8,1.09-.63,1.86-1.18,3.74-1.76,5.61-1.18,3.75-2.37,7.5-3.54,11.26-1.16,3.74-2.29,7.48-3.45,11.22-.33,1.06-.77,2.08-1.03,3.16-.21.83-.57,1.09-1.45,1.09-20.23-.03-40.46-.02-60.69-.02-.34,0-.68.03-1.02,0-.77-.09-.96.25-.95.98.03,2.72.01,5.44.01,8.17,0,6.28,0,12.55,0,18.83,0,.45-.25,1,.32,1.33.35.34.79.16,1.18.16,16.57.01,33.14,0,49.71.01.71,0,1.44-.07,2.11.25Z"/><path class="cls-1" d="m416.8,176c-.02-.34-.06-.68-.06-1.01,0-38.27,0-76.53.02-114.8,0-1.05-.28-1.32-1.31-1.31-7.45.04-14.9.02-22.35.03-.69,0-1.1-.04-1.3-.95-.72-3.16-1.63-6.27-2.45-9.4-1.17-4.47-2.32-8.95-3.5-13.42-1.04-3.95-2.08-7.89-3.17-11.82-.22-.8,0-1.02.76-1.01,1.29.02,2.57,0,3.86,0,37.29,0,74.57,0,111.86-.03,1.17,0,1.42.32,1.42,1.44-.04,11.31-.04,22.61,0,33.92,0,1.08-.35,1.29-1.34,1.29-13.16-.03-26.32,0-39.48-.05-1.19,0-1.41.35-1.41,1.46.03,37.96.02,75.93.01,113.89,0,.62.2,1.28-.17,1.87-.98-.12-1.96-.22-2.93.06-6.11,0-12.23,0-18.34,0-1.15-.25-2.29-.25-3.44,0-1.27,0-2.55,0-3.82,0-1.15-.25-2.29-.25-3.44,0-2.78,0-5.56,0-8.34,0-.1-.18-.2-.18-.3,0-.18,0-.37,0-.55,0-.07-.05-.14-.09-.21-.14Z"/><path class="cls-3" d="m319.47,222.48c0-7.3.02-14.59-.03-21.89,0-1.03.29-1.25,1.27-1.24,6.96.06,13.92-.02,20.87.1,5.5.09,10.32,1.85,13.69,6.5,4.07,5.62,3.6,14.89-1.42,19.63-1.83,1.73-4.02,2.8-6.43,3.43-.84.22-.86.46-.31,1.08,3.58,4,7.13,8.01,10.69,12.03.69.78,1.27,1.67,2.08,2.35.26.21.53.5.37.88-.15.36-.53.22-.8.22-2.95.01-5.9,0-8.85.02-.6,0-.96-.26-1.33-.69-4.03-4.66-8.09-9.3-12.11-13.96-.49-.56-.99-.81-1.75-.79-2.04.05-4.08.06-6.12,0-.87-.03-1.08.26-1.07,1.1.04,4.39,0,8.77.04,13.16.01.94-.25,1.23-1.2,1.2-2.12-.07-4.24-.07-6.35,0-.97.03-1.28-.2-1.27-1.23.05-7.3.03-14.59.02-21.89Zm16.15-.21s0-.01,0-.02c2.23,0,4.46.08,6.68-.02,4.13-.19,6.94-3.21,6.92-7.3-.01-4.07-2.88-7.12-6.99-7.23-4.15-.11-8.3-.05-12.46-.06-1.53,0-1.51,0-1.54,1.51-.08,4.1.2,8.21-.16,12.31-.06.67.24.83.86.82,2.23-.03,4.45-.01,6.68-.01Z"/><path class="cls-3" d="m244.46,229.37c4.42,4.99,8.8,9.93,13.18,14.88.27.3.72.57.56,1.04-.19.53-.72.28-1.09.28-2.72.02-5.45-.02-8.17.03-.81.02-1.35-.24-1.83-.86-2.07-2.67-4.41-5.12-6.59-7.7-1.77-2.1-3.66-4.11-5.47-6.18-.47-.54-.98-.72-1.68-.71-1.97.04-3.93.06-5.9,0-1.01-.04-1.36.2-1.34,1.29.07,4.27-.01,8.54.06,12.82.02,1.13-.33,1.39-1.4,1.35-2.11-.08-4.23-.05-6.35-.01-.75.01-1.05-.14-1.05-.98.02-14.75.02-29.49,0-44.24,0-.8.23-1.02,1.02-1.01,7.22.07,14.44.02,21.66.16,5.5.11,10.23,2.02,13.39,6.77,2.79,4.2,3.08,8.79,1.75,13.57-1.16,4.18-3.88,6.9-7.82,8.5-.94.38-1.91.66-2.93,1Zm-10.82-7.1s0-.01,0-.02c2.19,0,4.39.13,6.57-.03,5.65-.41,7.71-4.6,6.67-9.45-.63-2.95-3.27-4.96-6.36-5.05-4.49-.12-8.98-.06-13.48-.1-.6,0-.88.15-.88.82,0,4.3.12,8.6-.17,12.89-.05.77.25.96.97.95,2.23-.04,4.45-.01,6.68-.01Z"/><path class="cls-3" d="m99.27,227.62c.27-.46.15-.88.15-1.28,0-8.58.03-17.16-.02-25.74,0-1.03.29-1.28,1.27-1.24,2.15.07,4.31.06,6.46,0,.84-.02,1.09.2,1.09,1.07-.04,5.33-.02,10.66-.02,15.99,0,9.34-.02,18.67.02,28.01,0,.96-.27,1.27-1.21,1.17-.71-.08-1.45-.12-2.15,0-1.62.28-2.61-.46-3.54-1.7-2.42-3.24-4.94-6.4-7.42-9.59-4.06-5.22-8.15-10.42-12.18-15.66-.97-1.27-2.15-2.36-3.18-3.73v1.16c0,9.41-.01,18.83.02,28.24,0,.96-.18,1.33-1.23,1.29-2.08-.09-4.16-.08-6.24,0-1.01.04-1.26-.26-1.25-1.26.03-12.81.02-25.63.02-38.44,0-1.81.03-3.63-.01-5.44-.02-.73.2-1,.96-.98,1.78.05,3.55.03,5.33,0,.53,0,.91.13,1.26.57,3.99,5.08,7.99,10.15,12,15.22,3.18,4.02,6.36,8.04,9.54,12.05.08.1.2.18.33.29Z"/><path class="cls-3" d="m169.55,222.46c0-7.26.02-14.52-.02-21.78,0-.93.22-1.21,1.18-1.21,10.77.03,21.55.03,32.32,0,.81,0,1.15.16,1.12,1.05-.06,2.12-.06,4.23,0,6.35.03.87-.25,1.07-1.09,1.07-7.79-.03-15.58.01-23.36-.05-1.17,0-1.46.31-1.42,1.44.08,2.61.08,5.22,0,7.82-.03,1.07.23,1.41,1.35,1.4,7.41-.05,14.82,0,22.23-.05,1.05,0,1.37.28,1.32,1.33-.08,1.81-.08,3.63,0,5.44.04,1.01-.22,1.35-1.3,1.35-7.41-.05-14.82,0-22.23-.05-1.13,0-1.39.34-1.36,1.4.07,2.64.06,5.29,0,7.94-.02.86.25,1.07,1.09,1.07,7.83-.03,15.65,0,23.48-.04,1.06,0,1.35.29,1.3,1.33-.08,2.04-.07,4.08,0,6.12.03.93-.23,1.21-1.18,1.21-8.32-.04-16.63-.02-24.95-.02-2.46,0-4.92-.05-7.37.02-.93.03-1.13-.27-1.12-1.14.03-7.33.02-14.67.02-22Z"/><path class="cls-3" d="m445,222.45c0-7.26.02-14.52-.02-21.78,0-.96.28-1.2,1.21-1.19,10.7.03,21.4.03,32.11,0,1,0,1.31.26,1.27,1.27-.08,2-.07,4.01,0,6.01.03.94-.24,1.21-1.2,1.21-7.75-.04-15.5,0-23.26-.05-1.07,0-1.43.21-1.39,1.35.09,2.72.07,5.45,0,8.17-.02.92.26,1.14,1.14,1.14,7.49-.03,14.97,0,22.46-.04.97,0,1.33.21,1.29,1.24-.09,1.89-.07,3.78,0,5.67.04.96-.29,1.19-1.22,1.19-7.45-.04-14.9,0-22.35-.04-1.04,0-1.36.25-1.33,1.31.08,2.57.08,5.14,0,7.71-.03,1.07.24,1.4,1.36,1.4,7.71-.05,15.43,0,23.14-.06,1.17,0,1.48.29,1.42,1.44-.1,1.96-.08,3.93,0,5.9.04,1.02-.22,1.34-1.3,1.33-9.11-.05-18.23-.03-27.34-.03-1.63,0-3.25-.05-4.88.02-.92.04-1.14-.26-1.13-1.15.03-7.34.02-14.67.02-22.01Z"/><path class="cls-3" d="m20.02,222.46c0-7.26.02-14.52-.02-21.78,0-.93.23-1.21,1.19-1.21,10.7.03,21.4.04,32.1,0,1,0,1.3.26,1.26,1.26-.08,1.96-.08,3.93,0,5.9.04,1.01-.22,1.34-1.3,1.33-7.71-.05-15.43-.03-23.14-.03q-1.45,0-1.45,1.46c0,2.61.04,5.22-.02,7.82-.03,1.02.23,1.36,1.31,1.35,7.41-.05,14.82-.03,22.23-.03q1.44,0,1.45,1.48c0,1.78-.06,3.56.02,5.33.04.99-.23,1.28-1.25,1.28-7.45-.04-14.9,0-22.34-.05-1.18,0-1.45.32-1.42,1.45.09,2.61.06,5.22,0,7.82-.02.9.23,1.14,1.14,1.14,7.79-.04,15.58,0,23.36-.05,1.2,0,1.45.35,1.41,1.46-.09,2.08-.05,4.16,0,6.24.02.75-.22.96-.97.96-10.85-.02-21.7-.03-32.55,0-.93,0-1.02-.38-1.02-1.14.02-7.33.01-14.67.01-22Z"/><path class="cls-3" d="m411.9,197.87c4.29.37,8.64.44,12.53,2.73,2.41,1.42,4.31,3.29,5.69,5.71.31.54.35.82-.27,1.13-1.9.94-3.77,1.92-5.64,2.91-.42.22-.69.23-1.04-.2-2.09-2.63-4.94-3.95-8.17-4.43-2.79-.42-5.57-.18-8.22.85-1.22.47-2.23,1.27-2.93,2.41-1.4,2.26-.79,4.97,1.5,6.29,1.96,1.13,4.11,1.68,6.37,2,4.12.58,8.29.88,12.2,2.55,4.84,2.06,7.61,5.62,7.99,10.87.4,5.53-1.52,10.01-6.41,12.97-3.52,2.13-7.41,2.93-11.47,3.1-2.83.12-5.7.12-8.44-.52-5.78-1.36-10.38-4.4-12.83-10.09-.23-.53-.16-.8.36-1.07,1.99-1,3.97-2.03,5.94-3.07.44-.23.71-.29.98.24,1.73,3.42,4.59,5.39,8.27,6.2,3.65.81,7.27.74,10.79-.62,2.8-1.08,4.15-3.13,4.11-6-.02-1.99-1.06-3.36-2.68-4.31-1.92-1.12-4.02-1.63-6.23-1.89-4.63-.55-9.25-1.18-13.46-3.38-3.63-1.9-5.69-4.87-6.26-8.94-.71-5.02,1.11-8.93,5.12-11.84,2.35-1.71,5.05-2.62,7.94-3.08,1.42-.22,2.82-.45,4.26-.51Z"/><path class="cls-3" d="m510.82,246.76c-2.37.05-5.37-.29-8.28-1.19-4.79-1.49-8.35-4.43-10.52-9.01-.4-.83-.44-1.28.53-1.72,1.85-.85,3.64-1.85,5.44-2.81.59-.32.88-.25,1.22.38,2.25,4.12,5.88,6.1,10.46,6.4,2.4.16,4.82.26,7.17-.51,2.22-.72,4.21-1.74,5.09-4.11.94-2.51.26-4.88-1.94-6.4-1.97-1.36-4.23-1.94-6.6-2.16-4.69-.43-9.28-1.28-13.56-3.4-7.86-3.88-8.36-15.42-1.65-20.38,3.06-2.26,6.53-3.24,10.28-3.73,3.43-.45,6.76-.07,10.05.59,4.56.92,8.2,3.38,10.61,7.48.36.62.31.98-.38,1.32-1.8.88-3.57,1.81-5.34,2.74-.5.26-.82.29-1.25-.21-2.04-2.4-4.65-3.7-7.78-4.19-2.98-.47-5.86-.42-8.65.77-2.51,1.07-3.83,3.37-3.42,5.76.28,1.63,1.35,2.59,2.74,3.23,1.98.91,4.07,1.39,6.25,1.68,4.53.6,9.13,1.01,13.27,3.29,4.03,2.22,6.08,5.62,6.39,10.15.52,7.58-3.49,12.41-10.23,14.69-3,1.02-6.09,1.37-9.9,1.33Z"/><path class="cls-3" d="m268.34,222.46c0-7.26.02-14.51-.02-21.77,0-.92.23-1.22,1.19-1.22,6.99,0,13.98-.13,20.97-.07,4.59.04,8.6,1.71,11.94,4.93,2.89,2.78,4.1,6.27,4.37,10.18.14,1.95.14,3.88-.42,5.77-.81,2.77-2.07,5.31-4.24,7.27-1.06.95-2.3,1.68-3.6,2.36-1.61.84-3.23,1.42-4.95,1.89-1.2.33-2.39.2-3.58.21-3.89.05-7.78.05-11.68,0-.96-.01-1.3.19-1.28,1.23.07,3.74,0,7.48.04,11.22.01.91-.28,1.17-1.17,1.14-2.15-.06-4.31-.06-6.46,0-.91.03-1.13-.27-1.13-1.15.03-7.33.02-14.66.02-21.99h0Zm16,1.57s0-.02,0-.02c2.15,0,4.31.07,6.46-.02,3.18-.13,6.17-2.12,7.15-5.56,1.51-5.32-1.77-10.68-7.89-10.68-3.93,0-7.86.02-11.79-.02-.89,0-1.25.16-1.24,1.16.05,4.69.04,9.37,0,14.06,0,.83.19,1.13,1.06,1.1,2.08-.06,4.16-.02,6.24-.02Z"/><path class="cls-3" d="m134.58,226.43c0-5.93-.02-11.87.02-17.8,0-.96-.29-1.2-1.21-1.19-4.12.05-8.24,0-12.36.04-.86,0-1.1-.25-1.07-1.09.06-2,.04-4.01,0-6.01-.01-.7.22-.9.91-.9,12.02.02,24.04.02,36.06,0,.71,0,1.02.17,1,.95-.05,2.04-.05,4.08,0,6.12.02.8-.32.92-1.01.92-4.12-.02-8.24.02-12.36-.04-1.02-.02-1.26.28-1.26,1.27.04,11.87,0,23.73.05,35.6,0,1.07-.29,1.34-1.32,1.3-2.11-.08-4.23-.07-6.35,0-.92.03-1.14-.27-1.13-1.15.04-6.01.02-12.02.02-18.03Z"/><path class="cls-3" d="m379.1,222.46c0,7.33-.02,14.67.02,22,0,.89-.22,1.18-1.13,1.15-2.08-.07-4.16-.08-6.24,0-1.03.04-1.34-.24-1.34-1.31.04-13.87.03-27.75.02-41.62,0-.82-.08-1.64-.15-2.46-.04-.55.2-.73.72-.73,2.46.01,4.91.02,7.37,0,.77,0,.72.46.72.97,0,3.86,0,7.71,0,11.57,0,3.48,0,6.96,0,10.43Z"/><path class="cls-3" d="m151.79,85.42c-.68-.32-1.4-.25-2.11-.25-16.57,0-33.14,0-49.71-.01-.39,0-.83.18-1.18-.16.3-.02.6-.05.9-.05,17.07,0,34.15,0,51.22.02.3,0,.95-.38.88.45Z"/><path class="cls-3" d="m353.48,20.24c-3.54,0-7.08,0-10.61,0,1.7-.39,3.43-.2,5.14-.2,1.82,0,3.66-.18,5.48.2Z"/><path class="cls-3" d="m336.68,20.65c-.84.48-1.76.48-2.69.46.83-.52,1.78-.37,2.69-.46Z"/><path class="cls-3" d="m335.66,178.21c1.31-.27,2.62-.27,3.93,0-1.31.1-2.62.1-3.93,0Z"/><path class="cls-3" d="m251.95,176.14c1.15-.25,2.29-.25,3.44,0-1.15.11-2.29.11-3.44,0Z"/><path class="cls-3" d="m172.08,176.14c1.15-.25,2.29-.25,3.44,0-1.15.11-2.29.11-3.44,0Z"/><path class="cls-3" d="m164.82,176.14c1.15-.25,2.29-.25,3.44,0-1.15.11-2.29.11-3.44,0Z"/><path class="cls-3" d="m259.21,176.14c1.15-.25,2.29-.25,3.44,0-1.15.11-2.29.11-3.44,0Z"/><path class="cls-3" d="m426.2,176.14c1.15-.25,2.29-.25,3.44,0-1.15.11-2.29.11-3.44,0Z"/><path class="cls-3" d="m433.47,176.14c1.15-.25,2.29-.25,3.44,0-1.15.11-2.29.11-3.44,0Z"/><path class="cls-3" d="m77.69,176.14c1.15-.25,2.29-.25,3.44,0-1.15.11-2.29.11-3.44,0Z"/><path class="cls-3" d="m84.95,176.14c1.15-.25,2.29-.25,3.44,0-1.15.11-2.29.11-3.44,0Z"/><path class="cls-3" d="m95.61,176.14c.91-.34,1.86-.05,2.78-.18-.9.53-1.85.18-2.78.18Z"/><path class="cls-3" d="m455.24,176.14c.97-.27,1.95-.17,2.93-.06-.97.24-1.95.14-2.93.06Z"/><path class="cls-3" d="m57.58,176.01c.89,0,1.8-.18,2.68.13-.9.03-1.8.26-2.68-.13Z"/><path class="cls-3" d="m98.44,175.42c-.25-.85-.25-1.71,0-2.56.11.85.11,1.71,0,2.56Z"/><path class="cls-3" d="m136.65,176.15c.78-.24,1.56-.24,2.34,0-.78.11-1.56.11-2.34,0Z"/><path class="cls-3" d="m179.8,176.14c.55-.31,1.15-.1,1.72-.16-.54.44-1.14.19-1.72.16Z"/><path class="cls-3" d="m338.45,20.55c-.41.21-.82.24-1.23.03.41-.13.82-.13,1.23-.03Z"/><path class="cls-3" d="m328.68,178.01c.31.01.62.03.92.04-.31.11-.62.1-.92-.04Z"/><path class="cls-3" d="m355.14,131.32c.26.33.19.69.09,1.04-.16-.34-.14-.69-.09-1.04Z"/><path class="cls-3" d="m136.02,175.62c.04.17.07.34.11.51-.15.05-.32.05-.39-.11-.1-.24.11-.32.28-.4Z"/><path class="cls-3" d="m246.66,175.96c.27.04.58-.1.8.19-.29.04-.61.2-.8-.19Z"/><path class="cls-3" d="m345.68,49.68c.17-.14.34-.11.51,0-.17.11-.34.13-.51,0Z"/><path class="cls-3" d="m417.56,176.14c.1-.18.2-.18.3,0-.1,0-.2,0-.3,0Z"/><path class="cls-3" d="m416.8,176c.07.05.14.09.21.14-.14.06-.2,0-.21-.14Z"/><path class="cls-3" d="m289.82,176.15c.03-.09.06-.12.06,0,0,0-.06,0-.06,0Z"/><polygon class="cls-3" points="342.24 178.1 342.29 178.06 342.31 178.13 342.24 178.1"/><path class="cls-3" d="m355.19,134.17c.02.06.04.11.05.17,0,.02-.04.04-.07.06,0-.08.01-.15.02-.23Z"/><polygon class="cls-3" points="140.73 118.4 140.79 118.36 140.86 118.4 140.79 118.46 140.73 118.4"/><polygon class="cls-3" points="140.05 118.4 140.11 118.36 140.16 118.4 140.1 118.46 140.05 118.4"/><polygon class="cls-3" points="99.01 118.38 99.06 118.34 99.1 118.39 99.05 118.44 99.01 118.38"/></g></svg>