<?xml version="1.0" encoding="UTF-8"?>
<svg id="Layer_1" data-name="Layer 1" xmlns="http://www.w3.org/2000/svg" viewBox="0 0 512 512">
  <defs>
    <style>
      .cls-1 {
        fill: #fff;
      }
    </style>
  </defs>
  <path class="cls-1" d="m483.23,193.64c-1.23,15.6-3.04,31.05-7.28,46.17-11.24,40.15-35.71,68.68-74.04,85.39-19.46,8.48-39.97,12.56-60.74,15.78-2.03.31-4.04.7-7.07,1.23,17.84,19.57,21.46,42.35,20.77,66.64-.53,18.39-.13,36.81-.19,55.21-.09,27.43-20.31,47.69-47.72,47.78-23.27.07-46.54-.3-69.8.15-27.14.52-49.17-23.13-47.93-47.72.45-8.81-.53-17.68-.51-26.52.01-4.25-1.61-4.89-5.38-4.12-18.39,3.74-36.83,4.55-55.23.02-25.08-6.17-43.05-20.42-52.72-45-7.11-18.06-17.67-33.79-34.94-44.07-3.55-2.11-6.82-4.81-9.48-8.08-4.71-5.79-3.39-9.83,3.77-11.75,9.39-2.51,18.31-.51,26.85,3.27,14.79,6.55,25.63,17.48,33.96,31.2,6.84,11.27,15.27,21.13,27.23,27.32,21.44,11.1,42.95,8.41,64.43.05,2.16-.84,2.97-2.48,3.4-4.76,2.58-13.66,7.29-26.42,16.65-37.04,2.33-2.65.06-2.83-1.61-3.12-7.69-1.33-15.44-2.33-23.08-3.88-20.53-4.18-40.27-10.65-58.32-21.56-22.87-13.82-39.83-32.96-49.67-57.82-15.07-38.07-19.19-77.28-9.31-117.31,4.25-17.22,12.58-32.72,24.27-46.16,3.48-4.01,3.86-7.53,2.36-12.66-6.59-22.42-5.42-44.88,1.1-67.17.05-.17.12-.33.17-.49C97.68-.72,98.92-1.43,114.67,1.15c18.98,3.11,36.18,10.78,52.67,20.28,6.02,3.47,12.07,6.91,17.77,10.86,3.23,2.24,6.09,2.41,9.69,1.45,25.8-6.86,52.16-10.05,78.78-9.87,25.37.17,50.56,3.05,75.17,9.63,4.54,1.21,7.99.49,11.96-2.2,17.47-11.83,36.1-21.47,56.39-27.54,7.67-2.3,15.53-3.54,23.62-3.2,3.57.15,5.79,1.27,7.04,4.8,9.31,26.2,12.06,52.66,3.33,79.57-1.07,3.29-.44,5.35,1.72,7.88,24.79,29.17,33.39,63.22,30.43,100.84Z"/>
</svg>