<?xml version="1.0" encoding="UTF-8"?>
<svg id="Layer_1" data-name="Layer 1" xmlns="http://www.w3.org/2000/svg" viewBox="0 0 512 512">
  <path d="m459.48,0H52.52C23.51,0,0,23.51,0,52.52v406.97c0,29,23.51,52.52,52.52,52.52h406.97c29,0,52.52-23.51,52.52-52.52V52.52c0-29-23.51-52.52-52.52-52.52Zm-51.63,214.33c-.82,10.42-2.03,20.75-4.86,30.85-7.51,26.83-23.86,45.9-49.48,57.07-13,5.67-26.71,8.4-40.59,10.55-1.35.21-2.7.47-4.72.82,11.92,13.08,14.34,28.3,13.88,44.54-.35,12.29-.09,24.6-.13,36.9-.06,18.33-13.58,31.87-31.89,31.93-15.55.05-31.1-.2-46.65.1-18.14.35-32.86-15.46-32.03-31.89.3-5.89-.36-11.82-.34-17.73,0-2.84-1.08-3.27-3.59-2.76-12.29,2.5-24.61,3.04-36.91.02-16.76-4.12-28.77-13.64-35.23-30.07-4.75-12.07-11.81-22.58-23.35-29.45-2.37-1.41-4.56-3.21-6.34-5.4-3.15-3.87-2.27-6.57,2.52-7.85,6.27-1.68,12.24-.34,17.94,2.19,9.88,4.38,17.13,11.68,22.7,20.85,4.57,7.53,10.2,14.12,18.2,18.25,14.33,7.42,28.7,5.62,43.06.03,1.45-.56,1.98-1.66,2.27-3.18,1.72-9.13,4.87-17.66,11.13-24.75,1.56-1.77.04-1.89-1.08-2.08-5.14-.89-10.32-1.56-15.42-2.6-13.72-2.79-26.91-7.12-38.97-14.41-15.28-9.24-26.62-22.03-33.19-38.64-10.07-25.44-12.83-51.64-6.22-78.4,2.84-11.51,8.41-21.86,16.22-30.85,2.33-2.68,2.58-5.03,1.57-8.46-4.4-14.98-3.62-29.99.73-44.89.03-.11.08-.22.11-.33,3.01-10.25,3.83-10.72,14.36-9,12.68,2.08,24.18,7.2,35.2,13.55,4.02,2.32,8.07,4.62,11.87,7.26,2.16,1.5,4.07,1.61,6.47.97,17.24-4.59,34.85-6.72,52.64-6.6,16.96.12,33.79,2.04,50.23,6.43,3.04.81,5.34.33,7.99-1.47,11.67-7.9,24.12-14.35,37.69-18.41,5.13-1.53,10.38-2.37,15.78-2.14,2.39.1,3.87.85,4.71,3.21,6.22,17.51,8.06,35.19,2.23,53.17-.71,2.2-.29,3.57,1.15,5.27,16.57,19.49,22.31,42.25,20.34,67.39Z"/>
</svg>