<?xml version="1.0" encoding="UTF-8"?>
<svg id="Layer_1" data-name="Layer 1" xmlns="http://www.w3.org/2000/svg" xmlns:xlink="http://www.w3.org/1999/xlink" viewBox="0 0 909 779">
  <defs>
    <style>
      .cls-1 {
        fill: #f15a29;
      }

      .cls-2 {
        fill: #f7941d;
      }

      .cls-3 {
        fill: #fbb040;
      }

      .cls-4 {
        fill: #231f20;
      }

      .cls-5 {
        fill: #414042;
      }

      .cls-6 {
        fill: #58595b;
      }

      .cls-7 {
        fill: #fff;
        filter: url(#drop-shadow-1);
      }
    </style>
    <filter id="drop-shadow-1" filterUnits="userSpaceOnUse">
      <feOffset dx="0" dy="0"/>
      <feGaussianBlur result="blur" stdDeviation="4"/>
      <feFlood flood-color="#000" flood-opacity=".5"/>
      <feComposite in2="blur" operator="in"/>
      <feComposite in="SourceGraphic"/>
    </filter>
  </defs>
  <path class="cls-7" d="m285.59,575.04c-33.64-18.34-87.26-74.97-125.47-122.95-22.32-28.03-40.41-54.17-52.3-75.59-17.12-30.84-21.16-51.2-13.08-66.02l66.02-121.07L13.43,55.79c-6.84-6.2-8.54-16.28-4.12-24.39l8.1-14.85c4.06-7.45,12.38-11.52,20.76-10.17l216.11,35c1.51.07,3.02.31,4.5.73l284.7,46.11c2.25.36,4.4,1.11,6.38,2.18s3.76,2.48,5.29,4.18l192.96,214.36c1.16,1.02,2.18,2.16,3.05,3.39l146.47,162.72c5.68,6.31,6.76,15.51,2.69,22.96l-8.1,14.85c-4.42,8.11-13.82,12.13-22.74,9.74l-181.38-48.6c.89,8.66,1.15,16.83.72,24.05-2.76,46.36-14.94,74.54-29.05,107.17-5.11,11.81-10.37,24-15.75,38.26-4.77,12.64-1.71,19.53,1.01,23.61,2.81,4.23,7.55,8.23,13.69,11.58,4.27,2.33,9.1,4.27,14.27,5.74,10.57-7.1,24.64-8.23,36.55-1.73,7.55,4.12,13.1,10.63,16.02,18.21.13.03.53.11.6.13,4.04.88,8.94,1.65,14.19,2.24,5.55.48,11.59.59,17.49.31,18.2-1.18,35.14-6.96,49.02-16.72,11.2-7.85,25.6-8.66,37.59-2.12,4.74,2.59,8.9,6.29,12.03,10.71,4.49,6.25,6.72,13.73,6.53,21.31,4.83,9.58,4.97,21.05.31,30.98-4.81,10.25-14.14,17.64-25.03,19.83-23,5.28-45.9,6.17-68.09,2.65-19.98-3.04-39.95-9.94-59.35-20.52-1.86-1.01-3.72-2.07-5.58-3.15-9.35,3.59-20.08,3.11-29.45-2-3.91-2.13-7.32-4.94-10.12-8.28-11.46-2.57-22.13-6.52-31.81-11.8-13.51-7.37-24.63-17.23-32.15-28.53-13.61-20.44-15.87-45.58-6.38-70.77,3.47-9.2,6.83-17.45,10.11-25.23-10.12,9.82-28.14,15.2-56.53,17.11-24.42,1.65-56.12.64-91.68-2.91-60.93-6.08-137.65-20.52-171.67-39.08Z"/>
  <path class="cls-4" d="m253.35,61.37L112.29,320.05c-18.06,33.11,126.35,206.6,182.87,237.43,57.44,31.32,280.58,58.25,298.63,25.14l141.06-258.68L253.35,61.37Z"/>
  <polygon class="cls-4" points="402.93 359.87 34.97 26.13 540.29 107.97 882.77 488.43 402.93 359.87"/>
  <polygon class="cls-5" points="34.97 26.13 26.87 40.98 394.83 374.71 402.93 359.87 34.97 26.13"/>
  <polygon class="cls-6" points="882.77 488.43 874.67 503.28 394.83 374.71 402.93 359.87 882.77 488.43"/>
  <path class="cls-2" d="m643.47,706.88c-10.56-5.76-19.21-13.25-25.07-22.05-10.09-15.16-11.58-33.35-4.31-52.63,5.65-14.99,11.08-27.53,16.32-39.67,13.44-31.09,24.06-55.64,26.48-96.38,1.29-21.7-5.78-52.59-13.07-68.77-42.2-93.59-128.23-154.76-164.97-180.87-4.22-3-7.87-5.59-10.81-7.77l7.15-9.64c2.84,2.11,6.44,4.67,10.61,7.63,37.53,26.68,125.42,89.17,168.96,185.72,8.05,17.86,15.53,50.57,14.11,74.41-2.55,42.85-13.53,68.26-27.44,100.43-5.19,12-10.56,24.42-16.11,39.14-5.93,15.73-4.9,29.77,3.07,41.75,11.24,16.88,36.56,28.43,64.51,29.42l-.43,11.99c-18.22-.65-35.22-5.2-49-12.71Z"/>
  <g>
    <ellipse class="cls-4" cx="471.61" cy="233.92" rx="23.15" ry="34.66" transform="translate(40.46 535.98) rotate(-61.4)"/>
    <path class="cls-5" d="m459.57,256c-17.75-9.68-26.79-27.46-20.15-39.63,6.64-12.18,26.48-14.21,44.23-4.53,17.75,9.68,26.79,27.46,20.15,39.63-6.64,12.18-26.48,14.21-44.23,4.53Zm22.17-40.65c-15.81-8.62-33.22-7.31-38.8,2.93-5.58,10.24,2.74,25.58,18.55,34.21,15.81,8.62,33.22,7.31,38.8-2.93s-2.74-25.58-18.55-34.21Z"/>
  </g>
  <path class="cls-1" d="m694.74,709.59c7.89,6.1,17.55,8.97,27.16,10.96,5.31,1.16,11.11,2.01,16.49,2.6,6.76.6,13.8.7,20.58.37,21.32-1.36,42.1-8.16,59.4-20.33,7.09-4.97,16.86-3.25,21.83,3.84,6.09,8.39,1.88,20.84-7.98,23.9-19.45,6.99-39.65,10.4-60.14,9.58-22.67-.74-44.72-6.97-65.01-16.51-5.41-2.37-10.75-4.7-16.44-6.41-2.43-.7-3.84-3.24-3.13-5.68.82-3.09,4.79-4.34,7.25-2.33h0Z"/>
  <path class="cls-2" d="m700.1,710.63c7.12,6.99,16.38,10.97,25.69,14.07,5.14,1.77,10.79,3.3,16.07,4.52,6.65,1.39,13.63,2.32,20.39,2.79,21.33,1.15,42.77-3.16,61.37-13.21,7.62-4.1,17.13-1.25,21.23,6.38,5.06,9.04-.58,20.91-10.73,22.8-20.14,4.66-40.6,5.67-60.85,2.45-22.42-3.4-43.59-12.17-62.62-24.03-5.1-2.99-10.12-5.93-15.58-8.3-2.33-.98-3.43-3.67-2.45-6.01,1.18-2.97,5.27-3.75,7.47-1.46h0Z"/>
  <circle class="cls-3" cx="692.68" cy="713.59" r="15.22"/>
</svg>