<?xml version="1.0" encoding="UTF-8"?><svg id="Layer_1" xmlns="http://www.w3.org/2000/svg" viewBox="0 0 512 512"><defs><style>.cls-1{fill:#eee;}.cls-2{fill:#ea701d;}.cls-3{fill:#fff;}.cls-4{fill:#df571d;}</style></defs><g id="ozB9A2.tif"><g><path class="cls-4" d="m256.25,511.97h-1c-1.72-.74-3.55-1.1-5.34-1.59-38.41-10.64-76.83-21.28-115.24-31.91-8.65-2.4-17.3-4.8-25.95-7.2-.44-.12-1.05-.05-1.15-.73-.1-.65-.27-1.3-.28-1.95-.1-4.82-.83-9.6-1.19-14.4-.28-3.66-.82-7.31-1.03-10.98-.17-2.98-.53-5.95-.75-8.93-.19-2.59-.65-5.17-.76-7.77-.15-3.81-.68-7.58-.94-11.38-.26-3.79-.86-7.55-1.05-11.34-.17-3.39-.6-6.76-.89-10.13-.27-3.2-.42-6.42-.87-9.62-.38-2.69-.41-5.43-.66-8.14-.25-2.76-.75-5.5-.83-8.26-.14-4.61-.84-9.16-1.15-13.74-.26-3.88-.72-7.76-1.08-11.63-.33-3.67-.78-7.33-1.02-11-.3-4.68-.93-9.32-1.23-13.99-.29-4.46-.8-8.89-1.13-13.34-.51-6.79-1.19-13.56-1.87-20.34-.43-4.28-.73-8.58-1.08-12.88-.49-6.16-1.08-12.32-1.65-18.47-.34-3.67-.88-7.33-1.04-11.01-.15-3.44-.65-6.83-.87-10.26-.21-3.22-.56-6.44-.87-9.65-.27-2.76-.56-5.52-.73-8.3-.17-2.8-.68-5.59-.8-8.39-.21-4.72-.96-9.4-1.19-14.12-.09-1.82-.36-3.63-.56-5.44-.32-2.87-.44-5.76-.7-8.64-.24-2.72-.69-5.42-.8-8.14-.18-4.7-.85-9.35-1.17-14.03-.26-3.79-.87-7.56-1.08-11.35-.36-6.63-1.29-13.21-1.71-19.83-.12-1.85-.52-3.69-.54-5.53-.01-2.38-.45-4.7-.59-7.06-.19-3-.69-5.97-.69-8.99,0-.23,0-.47,0-.7.36-.31.8-.17,1.2-.18,4.5-.02,9-.03,13.5-.03,70.95,0,141.89,0,212.84,0,43.95,0,87.9,0,131.85,0,1.02,0,2.07-.17,3.07.2,0,.23,0,.47,0,.7-.09,2.65-.6,5.26-.72,7.9-.21,4.72-.9,9.4-1.21,14.11-.27,4.17-.72,8.34-1.07,12.5-.24,2.84-.55,5.68-.8,8.52-.28,3.21-.46,6.44-.91,9.64-.4,2.86-.45,5.76-.71,8.64-.33,3.7-.86,7.39-1.04,11.1-.23,4.64-.88,9.23-1.19,13.86-.31,4.62-1.05,9.21-1.3,13.83-.32,5.85-1.07,11.66-1.49,17.5-.2,2.71-.67,5.4-.77,8.11-.12,3.31-.63,6.58-.85,9.89-.22,3.21-.46,6.43-.9,9.64-.39,2.82-.44,5.68-.69,8.52-.25,2.8-.69,5.59-.81,8.39-.21,4.68-.89,9.32-1.19,13.99-.27,4.22-.73,8.42-1.09,12.63-.24,2.84-.55,5.68-.8,8.52-.29,3.21-.46,6.44-.91,9.64-.4,2.86-.45,5.76-.71,8.64-.33,3.62-.87,7.22-1.04,10.85-.23,4.85-.93,9.65-1.23,14.49-.16,2.69-.45,5.37-.78,8.05-.35,2.86-.44,5.76-.7,8.64-.32,3.6-.69,7.19-1.01,10.79-.22,2.47-.39,4.96-.65,7.42-.34,3.24-.43,6.5-.89,9.73-.39,2.73-.41,5.51-.67,8.26-.34,3.7-.9,7.39-1.08,11.1-.24,4.85-.92,9.65-1.23,14.49-.18,2.76-.67,5.51-.78,8.27-.18,4.32-.8,8.6-1.08,12.9-.21,3.17-.65,6.32-.94,9.48-.25,2.75-.4,5.51-.64,8.27-.27,3.16-.65,6.31-.81,9.48-.06,1.17-.45,1.63-1.55,1.93-22.24,6.13-44.46,12.29-66.69,18.45-23.91,6.62-47.83,13.22-71.73,19.87-2.78.77-5.63,1.35-8.32,2.45Zm-.48-125.81c-5.45-1.48-10.9-2.97-16.36-4.44-11.08-2.98-22.16-5.95-33.24-8.91-.54-.15-1.15-.24-1.14-.92.04-2-.41-3.96-.48-5.94-.12-3.82-.73-7.6-.95-11.41-.16-2.89-.66-5.76-.82-8.64-.16-2.87-.5-5.72-.68-8.58-.05-.85-.35-1.08-1.2-1.08-14.45.03-28.9.03-43.36,0-.87,0-1.16.2-1.06,1.11.31,2.97.52,5.95.8,8.92.33,3.53.57,7.07.95,10.6.6,5.64,1.03,11.29,1.53,16.94.33,3.71.67,7.42,1,11.13.33,3.71.66,7.42,1,11.13.31,3.43.68,6.85.92,10.29.07.96.41,1.34,1.3,1.58,20.71,5.75,41.41,11.52,62.11,17.3,9.89,2.76,19.77,5.54,29.66,8.31.36.48.24,1.04.24,1.57,0,14.58,0,29.16,0,43.74,0,1.68,0,1.65,1.6,1.2,7.14-2.03,14.27-4.05,21.42-6.05,9.82-2.74,19.65-5.43,29.47-8.17,10.42-2.9,20.83-5.83,31.25-8.74,7.18-2.01,14.37-4.02,21.55-6.02,4.47-1.25,8.94-2.49,13.42-3.71.79-.22,1.3-.53,1.35-1.48.07-1.53.28-3.04.41-4.57.19-2.19.34-4.37.55-6.56.31-3.33.65-6.66.95-10,.2-2.23.29-4.46.55-6.68.41-3.53.68-7.08.96-10.62.16-2.06.35-4.12.54-6.18.31-3.42.65-6.83.96-10.25.2-2.18.35-4.37.55-6.56.31-3.38.64-6.75.95-10.12.2-2.18.34-4.37.54-6.56.3-3.29.65-6.58.95-9.87.21-2.27.29-4.55.55-6.81.41-3.53.68-7.08.96-10.62.16-2.06.34-4.12.54-6.18.31-3.29.66-6.58.96-9.87.21-2.27.29-4.55.55-6.81.41-3.53.67-7.08.96-10.62.17-2.06.34-4.12.53-6.18.31-3.29.66-6.58.96-9.87.21-2.27.28-4.55.55-6.81.41-3.53.67-7.08.96-10.62.17-2.06.35-4.12.53-6.18.32-3.5.65-7,.96-10.5.19-2.1.35-4.21.55-6.31.31-3.38.65-6.75.95-10.12.2-2.18.34-4.37.54-6.56.31-3.5.65-7,.96-10.5.19-2.1.35-4.21.55-6.31.31-3.33.65-6.67.95-10,.2-2.23.34-4.46.54-6.68.31-3.5.65-7,.96-10.5.19-2.1.35-4.21.54-6.31.31-3.33.65-6.66.95-10,.2-2.23.34-4.46.54-6.68.31-3.5.65-7,.96-10.5.19-2.1.35-4.21.54-6.31.31-3.42.63-6.83.96-10.25.23-2.34.42-4.69.72-7.03.19-1.52.07-1.75-1.45-1.75-48.41,0-96.82,0-145.23-.03-1.35,0-1.55.44-1.54,1.63.04,14.54.02,29.08.02,43.62-.08.03-.16.06-.24.09-.42-.01-.83-.04-1.25-.04-37.02,0-74.05,0-111.07,0-.21,0-.42.02-.62,0-.72-.09-.81.28-.76.89.34,3.99.54,7.99,1,11.97.49,4.24.84,8.5,1.24,12.75.3,3.19.53,6.38.8,9.57.27,3.24.65,6.48.92,9.73.18,2.22.36,4.46.58,6.68.43,4.19.76,8.4,1.17,12.59.5,5.05.91,10.11,1.34,15.17.27,3.17.54,6.35.9,9.51.37,3.23.41,6.5.8,9.73.51,4.24.83,8.5,1.25,12.74.4,4.09.62,8.19,1.03,12.28.4,4,.78,8,1.15,12,.11,1.22.36,1.65,1.7,1.65,29.07-.04,58.14-.03,87.21-.04,4.21,0,8.41-.01,12.62-.02.08.06.16.13.24.19,0,24.12,0,48.23.01,72.35-.08.05-.16.1-.24.16Z"/><path class="cls-3" d="m437.23,100.8c-1-.36-2.05-.2-3.07-.2-43.95-.01-87.9,0-131.85,0-70.95,0-141.89,0-212.84,0-4.5,0-9,.01-13.5.03-.4,0-.84-.13-1.2.18-.08-.01-.16-.02-.25-.03,0-33.2,0-66.41-.02-99.61,0-.94.21-1.15,1.15-1.15,10.96.04,21.91.02,32.87.02-.03.29-.08.58-.08.86,0,22.37,0,44.74-.03,67.11,0,.96.34,1.04,1.14,1.04,6.96-.03,13.91-.04,20.87,0,1,0,1.21-.27,1.2-1.23-.04-6.83,0-13.66-.05-20.49,0-.99.16-1.34,1.25-1.33,6.21.06,12.41.05,18.62,0,.9,0,1.18.16,1.17,1.13-.05,6.91,0,13.83-.05,20.74,0,.94.22,1.17,1.16,1.16,6.87-.04,13.75-.05,20.62,0,1.07,0,1.26-.29,1.26-1.3-.03-22.16-.02-44.32-.03-66.48,0-.41-.05-.83-.08-1.24,3.42,0,6.83,0,10.25,0-.01,7.37,0,14.74-.05,22.11,0,.87.34.9,1.02.9,6-.02,11.99.03,17.99-.04,1.14-.01,1.32.31,1.32,1.36-.04,14.49-.01,28.98-.05,43.48,0,.98.24,1.22,1.21,1.21,6.83-.05,13.66-.05,20.49,0,1.08,0,1.35-.23,1.35-1.34-.04-14.49-.02-28.98-.05-43.48,0-.92.16-1.25,1.19-1.24,6.04.06,12.08,0,18.11.05.95,0,1.17-.25,1.16-1.17-.05-4.91-.03-9.83-.02-14.74,0-2.37.05-4.74.08-7.11,3.33,0,6.67,0,10,0,0,22.61,0,45.23-.02,67.84,0,.88.14,1.18,1.12,1.18,6.79-.05,13.58-.05,20.36,0,.97,0,1.14-.27,1.13-1.17-.03-10.41-.02-20.82-.02-31.24,0-.45.06-.9.1-1.36h-.04c.55.01.58.54.79.85,4.2,6.44,8.39,12.89,12.57,19.34.87,1.34,1.74,2.68,2.69,4.14,5.34-8.22,10.6-16.32,16.07-24.75v1.69c0,10.37.02,20.74-.03,31.11,0,1.19.36,1.39,1.44,1.38,6.75-.05,13.49-.06,20.24,0,1.2.01,1.37-.37,1.37-1.44-.03-19.53-.02-39.06-.02-58.59,0-3-.02-6-.03-8.99,3.83,0,7.67,0,11.5,0-.01.17-.03.33-.03.5,0,22.49,0,44.98-.03,67.48,0,.96.35,1.03,1.14,1.03,17.79-.02,35.57-.03,53.36.01,1.03,0,1.11-.36,1.1-1.2-.03-6.79-.04-13.58.01-20.37,0-1.07-.29-1.27-1.3-1.26-9.95.04-19.91,0-29.86.06-1.26,0-1.47-.36-1.45-1.52.07-4.21.03-8.41.03-12.62,0-10.7.02-21.41.03-32.11,21.58,0,43.16,0,64.74-.02.86,0,1.02.17,1.02,1.02-.03,33.25-.02,66.49-.02,99.74-.08.01-.16.02-.25.03Z"/><path class="cls-3" d="m256.25,511.97c2.69-1.09,5.53-1.67,8.32-2.45,23.9-6.65,47.82-13.25,71.73-19.87,22.23-6.15,44.46-12.32,66.69-18.45,1.1-.3,1.48-.76,1.55-1.93.17-3.17.55-6.32.81-9.48.23-2.76.39-5.52.64-8.27.29-3.16.74-6.31.94-9.48.28-4.31.91-8.58,1.08-12.9.11-2.76.6-5.51.78-8.27.31-4.84.99-9.64,1.23-14.49.18-3.71.74-7.39,1.08-11.1.25-2.75.28-5.53.67-8.26.46-3.23.55-6.49.89-9.73.26-2.46.43-4.95.65-7.42.32-3.59.68-7.19,1.01-10.79.26-2.88.34-5.77.7-8.64.33-2.68.62-5.36.78-8.05.29-4.84.99-9.64,1.23-14.49.17-3.62.71-7.23,1.04-10.85.26-2.88.31-5.78.71-8.64.45-3.2.62-6.43.91-9.64.25-2.84.56-5.68.8-8.52.36-4.21.82-8.41,1.09-12.63.3-4.67.98-9.31,1.19-13.99.13-2.8.56-5.59.81-8.39.25-2.84.3-5.7.69-8.52.44-3.2.69-6.42.9-9.64.22-3.3.74-6.57.85-9.89.09-2.71.57-5.4.77-8.11.42-5.84,1.17-11.65,1.49-17.5.25-4.62.99-9.21,1.3-13.83.31-4.63.96-9.23,1.19-13.86.18-3.71.71-7.4,1.04-11.1.26-2.88.3-5.78.71-8.64.45-3.2.62-6.43.91-9.64.25-2.84.56-5.68.8-8.52.35-4.17.81-8.33,1.07-12.5.3-4.71,1-9.39,1.21-14.11.12-2.64.63-5.25.72-7.9.08,0,.17.01.25.02,0,136.41,0,272.83.02,409.24,0,.96-.12,1.24-1.19,1.24-60.02-.03-120.04-.03-180.06-.03Z"/><path class="cls-3" d="m74.77,101.5c0,3.01.51,5.99.69,8.99.15,2.36.58,4.69.59,7.06.01,1.85.42,3.68.54,5.53.42,6.62,1.35,13.2,1.71,19.83.2,3.79.81,7.56,1.08,11.35.33,4.68.99,9.33,1.17,14.03.1,2.72.56,5.42.8,8.14.26,2.88.38,5.77.7,8.64.2,1.81.47,3.62.56,5.44.24,4.72.98,9.39,1.19,14.12.12,2.8.63,5.59.8,8.39.17,2.77.46,5.54.73,8.3.31,3.21.66,6.43.87,9.65.22,3.43.72,6.82.87,10.26.16,3.68.7,7.34,1.04,11.01.57,6.16,1.16,12.31,1.65,18.47.34,4.29.65,8.6,1.08,12.88.67,6.78,1.36,13.55,1.87,20.34.33,4.45.85,8.88,1.13,13.34.3,4.67.94,9.31,1.23,13.99.23,3.67.68,7.33,1.02,11,.35,3.88.82,7.75,1.08,11.63.31,4.59,1.01,9.14,1.15,13.74.08,2.76.58,5.5.83,8.26.25,2.71.29,5.45.66,8.14.45,3.2.6,6.41.87,9.62.29,3.38.72,6.74.89,10.13.19,3.79.79,7.56,1.05,11.34.26,3.8.79,7.57.94,11.38.1,2.59.57,5.17.76,7.77.22,2.98.58,5.94.75,8.93.21,3.67.75,7.31,1.03,10.98.36,4.8,1.09,9.57,1.19,14.4.01.65.18,1.3.28,1.95.1.69.71.61,1.15.73,8.65,2.41,17.3,4.81,25.95,7.2,38.41,10.64,76.83,21.27,115.24,31.91,1.79.5,3.62.85,5.34,1.59-59.85,0-119.71,0-179.56.03-1.07,0-1.19-.28-1.19-1.24.03-136.41.02-272.83.02-409.24.08,0,.17-.01.25-.02Z"/><path d="m282.18,35.28c-.03.45-.1.9-.1,1.36,0,10.41-.02,20.82.02,31.24,0,.9-.16,1.18-1.13,1.17-6.79-.05-13.58-.05-20.36,0-.98,0-1.12-.29-1.12-1.18.02-22.61.02-45.23.02-67.84h24.25c-.07.33.18.54.33.78,4.65,7.66,9.32,15.31,13.98,22.96.09.15.21.29.34.47.15-.21.26-.34.35-.48,4.66-7.65,9.33-15.3,13.98-22.96.14-.23.43-.43.27-.77,8.08,0,16.16,0,24.25,0,.01,3,.03,6,.03,8.99,0,19.53,0,39.06.02,58.59,0,1.07-.17,1.45-1.37,1.44-6.75-.07-13.49-.06-20.24,0-1.08,0-1.45-.19-1.44-1.38.06-10.37.03-20.74.03-31.11v-1.69c-5.47,8.43-10.73,16.53-16.07,24.75-.95-1.46-1.82-2.8-2.69-4.14-4.19-6.45-8.37-12.9-12.57-19.34-.2-.31-.23-.84-.79-.84.02-.03.07-.07.06-.08-.05-.11-.1-.11-.12.02,0,.01.06.04.09.06Z"/><path d="m175.51.02c.03.41.08.83.08,1.24,0,22.16,0,44.32.03,66.48,0,1.01-.19,1.31-1.26,1.3-6.87-.06-13.75-.05-20.62,0-.94,0-1.17-.23-1.16-1.16.04-6.91,0-13.83.05-20.74,0-.97-.28-1.14-1.17-1.13-6.21.04-12.41.05-18.62,0-1.1-.01-1.26.34-1.25,1.33.04,6.83,0,13.66.05,20.49,0,.95-.21,1.23-1.2,1.23-6.96-.05-13.91-.04-20.87,0-.8,0-1.14-.08-1.14-1.04.03-22.37.02-44.74.03-67.11,0-.29.05-.58.08-.86,7.67,0,15.33,0,23,0-.03.12-.08.24-.08.36,0,7.2.01,14.41-.03,21.61,0,1,.56.8,1.11.8,6.33,0,12.66-.03,18.99.03,1.03,0,1.11-.37,1.1-1.21-.03-4.75,0-9.49-.02-14.24,0-2.45-.05-4.91-.08-7.36,7.67,0,15.33,0,23,0Z"/><path d="m249.5.02c-.03,2.37-.07,4.74-.08,7.11-.01,4.91-.03,9.83.02,14.74,0,.92-.21,1.18-1.16,1.17-6.04-.05-12.08,0-18.11-.05-1.02,0-1.19.31-1.19,1.24.03,14.49,0,28.98.05,43.48,0,1.11-.27,1.34-1.35,1.34-6.83-.06-13.66-.05-20.49,0-.97,0-1.22-.23-1.21-1.21.03-14.49.01-28.98.05-43.48,0-1.05-.18-1.38-1.32-1.36-6,.07-11.99.02-17.99.04-.67,0-1.02-.03-1.02-.9.05-7.37.04-14.74.05-22.11,21.25,0,42.49,0,63.74,0Z"/><path d="m371.73.02c-.01,10.7-.02,21.41-.03,32.11,0,4.21.04,8.41-.03,12.62-.02,1.15.19,1.52,1.45,1.52,9.95-.06,19.91-.02,29.86-.06,1.01,0,1.31.2,1.3,1.26-.06,6.79-.04,13.58-.01,20.37,0,.84-.07,1.2-1.1,1.2-17.79-.04-35.57-.03-53.36-.01-.79,0-1.14-.07-1.14-1.03.03-22.49.02-44.98.03-67.48,0-.17.02-.33.03-.5,7.67,0,15.33,0,23,0Z"/><path class="cls-3" d="m152.51.02c.03,2.45.07,4.91.08,7.36.01,4.75-.01,9.49.02,14.24,0,.84-.07,1.22-1.1,1.21-6.33-.06-12.66-.03-18.99-.03-.55,0-1.12.19-1.11-.8.04-7.2.03-14.41.03-21.61,0-.12.05-.24.08-.36,7,0,14,0,21,0Z"/><path class="cls-3" d="m312.99.02c.16.34-.14.54-.27.77-4.65,7.66-9.32,15.31-13.98,22.96-.09.14-.19.27-.35.48-.13-.18-.25-.32-.34-.47-4.66-7.65-9.33-15.31-13.98-22.96-.14-.24-.4-.44-.33-.78h29.25Z"/><path class="cls-2" d="m74.77,101.5c-.08,0-.17.01-.25.02,0-.25,0-.5,0-.75.08.01.16.02.25.03,0,.23,0,.47,0,.7Z"/><path class="cls-2" d="m437.48,101.51c-.08,0-.17-.01-.25-.02,0-.23,0-.47,0-.7.08-.01.16-.02.25-.03v.75Z"/><path class="cls-2" d="m256,176.23c0-14.54.01-29.08-.02-43.62,0-1.19.2-1.63,1.54-1.63,48.41.04,96.82.03,145.23.03,1.52,0,1.65.23,1.45,1.75-.3,2.34-.49,4.68-.72,7.03-.33,3.42-.65,6.83-.96,10.25-.19,2.1-.35,4.21-.54,6.31-.32,3.5-.66,7-.96,10.5-.2,2.23-.34,4.46-.54,6.68-.3,3.33-.64,6.67-.95,10-.2,2.1-.35,4.21-.54,6.31-.32,3.5-.65,7-.96,10.5-.2,2.23-.34,4.46-.54,6.68-.3,3.33-.64,6.67-.95,10-.19,2.1-.36,4.21-.55,6.31-.32,3.5-.65,7-.96,10.5-.19,2.18-.34,4.37-.54,6.56-.3,3.38-.64,6.75-.95,10.12-.19,2.1-.36,4.21-.55,6.31-.32,3.5-.65,7-.96,10.5-.19,2.06-.36,4.12-.53,6.18-.29,3.54-.55,7.09-.96,10.62-.26,2.26-.34,4.54-.55,6.81-.3,3.29-.65,6.58-.96,9.87-.19,2.06-.37,4.12-.53,6.18-.29,3.54-.55,7.09-.96,10.62-.26,2.26-.34,4.54-.55,6.81-.3,3.29-.65,6.58-.96,9.87-.19,2.06-.37,4.12-.54,6.18-.28,3.54-.55,7.09-.96,10.62-.26,2.26-.34,4.54-.55,6.81-.3,3.29-.65,6.58-.95,9.87-.2,2.18-.35,4.37-.54,6.56-.3,3.38-.64,6.75-.95,10.12-.2,2.18-.35,4.37-.55,6.56-.31,3.42-.64,6.83-.96,10.25-.19,2.06-.37,4.12-.54,6.18-.28,3.55-.55,7.09-.96,10.62-.26,2.22-.35,4.46-.55,6.68-.3,3.33-.65,6.67-.95,10-.2,2.18-.36,4.37-.55,6.56-.13,1.52-.35,3.04-.41,4.57-.04.95-.55,1.26-1.35,1.48-4.48,1.22-8.95,2.47-13.42,3.71-7.19,2-14.37,4.01-21.55,6.02-10.42,2.91-20.83,5.84-31.25,8.74-9.82,2.74-19.65,5.43-29.47,8.17-7.15,1.99-14.28,4.02-21.42,6.05-1.61.46-1.6.48-1.6-1.2,0-14.58,0-29.16,0-43.74,0-.53.11-1.09-.24-1.57.1-.09.21-.18.31-.28.36-.09.73-.16,1.09-.26,24.35-6.75,48.7-13.51,73.05-20.27,5.85-1.62,11.7-3.22,17.54-4.85.42-.12.95-.07,1.02-.84.29-3.52.67-7.04,1.01-10.56.48-4.92.76-9.85,1.28-14.76.44-4.21.72-8.42,1.18-12.63.4-3.69.68-7.39,1.01-11.09.42-4.64.84-9.29,1.25-13.93.34-3.8.67-7.6,1.01-11.41.33-3.74.67-7.48,1.01-11.23.49-5.48.99-10.96,1.48-16.44.5-5.58,1-11.15,1.5-16.73.56-6.15,1.12-12.31,1.69-18.46.15-1.61.16-1.61-1.48-1.61-34.03,0-68.05,0-102.08,0-.54,0-1.08-.05-1.62-.07,0-15.45,0-30.9,0-46.35.54-.02,1.08-.05,1.62-.05,35.32,0,70.64,0,105.95,0,.33,0,.67-.03,1,0,.63.06.87-.17.92-.83.22-2.89.5-5.78.77-8.67.41-4.4.82-8.8,1.23-13.2.43-4.62.84-9.24,1.28-13.86.23-2.36.35-4.73.59-7.08.18-1.83.37-1.81-1.4-1.81-36.78,0-73.55,0-110.33,0-.54,0-1.08-.03-1.62-.05Z"/><path class="cls-1" d="m255.75,313.47c-4.21,0-8.41.02-12.62.02-29.07,0-58.14,0-87.21.04-1.34,0-1.59-.43-1.7-1.65-.37-4-.75-8-1.15-12-.41-4.08-.62-8.19-1.03-12.28-.42-4.25-.73-8.5-1.25-12.74-.39-3.23-.43-6.5-.8-9.73-.36-3.17-.63-6.35-.9-9.51-.42-5.06-.84-10.12-1.34-15.17-.41-4.2-.75-8.4-1.17-12.59-.22-2.21-.4-4.45-.58-6.68-.27-3.24-.65-6.49-.92-9.73-.27-3.19-.5-6.38-.8-9.57-.39-4.25-.74-8.5-1.24-12.75-.46-3.97-.66-7.98-1-11.97-.05-.61.04-.98.76-.89.2.03.42,0,.62,0,37.02,0,74.05,0,111.07,0,.42,0,.83.02,1.25.04,0,15.12,0,30.24,0,45.36-.54.01-1.08.04-1.62.04-20.33,0-40.66,0-60.99,0-1.33,0-1.65.29-1.36,1.6.48,2.23.46,4.5.74,6.74.27,2.17.2,4.4.52,6.56.48,3.21.67,6.44.97,9.67.3,3.26.43,6.54.81,9.79.4,3.42.76,6.84.92,10.27.09,1.79.04,1.85,1.77,1.85,18.91,0,37.83,0,56.74,0,.5,0,1,.03,1.5.04,0,15.07,0,30.15,0,45.22Z"/><path class="cls-3" d="m255.75,313.47c0-15.07,0-30.15,0-45.22.08-.04.17-.08.25-.12.54.03,1.08.07,1.62.07,34.03,0,68.05,0,102.08,0,1.64,0,1.63,0,1.48,1.61-.57,6.15-1.13,12.31-1.69,18.46-.5,5.58-1,11.15-1.5,16.73-.49,5.48-.99,10.96-1.48,16.44-.34,3.74-.67,7.48-1.01,11.23-.34,3.8-.67,7.6-1.01,11.41-.42,4.64-.83,9.29-1.25,13.93-.33,3.7-.61,7.4-1.01,11.09-.46,4.2-.74,8.42-1.18,12.63-.51,4.91-.8,9.85-1.28,14.76-.34,3.52-.72,7.04-1.01,10.56-.06.77-.6.72-1.02.84-5.84,1.63-11.7,3.23-17.54,4.85-24.35,6.75-48.7,13.51-73.05,20.27-.36.1-.73.17-1.09.26-.43-.29-.31-.74-.31-1.14,0-15.32,0-30.64.01-45.96.08-.05.16-.1.24-.16.37-.06.74-.1,1.1-.19,6.31-1.69,12.61-3.38,18.91-5.07,9.76-2.61,19.52-5.22,29.28-7.81.8-.21,1.24-.49,1.29-1.46.16-3.03.54-6.04.7-9.08.17-3.32.68-6.63.98-9.94.44-4.99.71-10,1.27-14.98.38-3.3.67-6.61.97-9.92.37-4.12.65-8.25,1-12.37.13-1.6.17-1.59-1.42-1.59-17.49,0-34.99,0-52.48,0-.54,0-1.08.05-1.62.07-.08-.06-.16-.13-.24-.19Z"/><path class="cls-1" d="m255.77,386.16c0,15.32-.01,30.64-.01,45.96,0,.4-.12.85.31,1.14-.1.09-.21.18-.31.28-9.89-2.77-19.77-5.55-29.66-8.31-20.7-5.78-41.4-11.55-62.11-17.3-.89-.25-1.23-.63-1.3-1.58-.24-3.43-.6-6.86-.92-10.29-.34-3.71-.67-7.42-1-11.13-.33-3.71-.67-7.42-1-11.13-.5-5.65-.94-11.3-1.53-16.94-.37-3.53-.62-7.07-.95-10.6-.27-2.97-.49-5.95-.8-8.92-.09-.91.19-1.11,1.06-1.11,14.45.02,28.9.03,43.36,0,.85,0,1.15.23,1.2,1.08.18,2.86.52,5.71.68,8.58.16,2.89.66,5.76.82,8.64.21,3.81.82,7.59.95,11.41.06,1.98.52,3.94.48,5.94-.01.68.6.77,1.14.92,11.08,2.96,22.16,5.93,33.24,8.91,5.46,1.47,10.91,2.96,16.36,4.44Z"/><path class="cls-3" d="m255.76,221.68c0-15.12,0-30.24,0-45.36.08-.03.16-.06.24-.09.54.02,1.08.05,1.62.05,36.78,0,73.55,0,110.33,0,1.77,0,1.59-.02,1.4,1.81-.24,2.35-.36,4.72-.59,7.08-.44,4.62-.85,9.24-1.28,13.86-.41,4.4-.82,8.8-1.23,13.2-.27,2.89-.54,5.78-.77,8.67-.05.66-.29.89-.92.83-.33-.03-.67,0-1,0-35.32,0-70.64,0-105.95,0-.54,0-1.08.03-1.62.05-.08-.03-.16-.06-.24-.09Z"/><path class="cls-2" d="m255.99,313.66c.54-.03,1.08-.07,1.62-.07,17.49,0,34.99,0,52.48,0,1.59,0,1.55,0,1.42,1.59-.35,4.12-.63,8.25-1,12.37-.3,3.31-.59,6.61-.97,9.92-.57,4.98-.83,9.99-1.27,14.98-.29,3.32-.81,6.62-.98,9.94-.15,3.04-.54,6.05-.7,9.08-.05.97-.49,1.25-1.29,1.46-9.76,2.59-19.52,5.2-29.28,7.81-6.31,1.69-12.61,3.38-18.91,5.07-.36.1-.73.13-1.1.19,0-24.12,0-48.23-.01-72.35Z"/><path class="cls-1" d="m282.18,35.28s-.09-.04-.09-.06c.02-.12.07-.13.12-.02,0,.02-.04.06-.06.08,0,0,.04,0,.04,0Z"/><path class="cls-4" d="m255.76,221.68c.08.03.16.06.24.09,0,15.45,0,30.9,0,46.35-.08.04-.17.08-.25.12-.5-.01-1-.04-1.5-.04-18.91,0-37.83,0-56.74,0-1.73,0-1.69-.06-1.77-1.85-.17-3.43-.52-6.85-.92-10.27-.38-3.25-.51-6.53-.81-9.79-.29-3.23-.48-6.46-.97-9.67-.33-2.16-.25-4.38-.52-6.56-.28-2.24-.26-4.51-.74-6.74-.28-1.31.04-1.6,1.36-1.6,20.33,0,40.66,0,60.99,0,.54,0,1.08-.02,1.62-.04Z"/></g></g></svg>