<?xml version="1.0" encoding="UTF-8"?>
<svg id="Layer_1" data-name="Layer 1" xmlns="http://www.w3.org/2000/svg" viewBox="0 0 512 512">
  <defs>
    <style>
      .cls-1 {
        fill: #fff;
      }
    </style>
  </defs>
  <g id="_9jVq3l.tif" data-name="9jVq3l.tif">
    <g>
      <path class="cls-1" d="m126.45,0h259.61c2.6.51,5.2,1.05,7.81,1.52,47.55,8.7,82.12,34.82,104.16,77.7,7.53,14.65,11.3,30.44,13.84,46.59v259.61c-2.6,16.67-6.49,32.99-14.54,47.96-26.14,48.65-66.66,76.65-121.98,77.77-79.32,1.61-158.7.43-238.05.4-13.42,0-26.46-2.61-39.16-6.74C39.24,485.69-.3,430.08.13,368.57c.53-75.36.12-150.72.13-226.08,0-6.48.03-12.95,1.02-19.41C8.97,73.13,35.28,36.65,80.28,13.65c14.54-7.43,30.19-11.1,46.17-13.65Zm339.18,255.53s.07,0,.11,0c0-36.78,0-73.56,0-110.33,0-6.48-.2-12.93-1.08-19.4-5.84-42.74-46.11-79.24-89.16-79.45-78.55-.39-157.09-.14-235.64-.17-4.51,0-8.95.48-13.4,1.08-42.75,5.78-79.24,46.08-79.45,89.13-.39,78.55-.14,157.09-.17,235.64,0,4.51.48,8.95,1.08,13.4,5.77,42.74,46.1,79.24,89.13,79.45,78.55.39,157.09.14,235.64.17,4.51,0,8.95-.48,13.4-1.08,42.76-5.78,79.04-46.07,79.47-89.13.4-39.77.08-79.54.08-119.32Z"/>
      <path class="cls-1" d="m256.27,123.45c72.93,0,132.12,59.14,132.15,132.05.04,73.16-59.23,132.36-132.42,132.27-72.88-.09-131.95-59.33-131.9-132.3.04-72.9,59.24-132.03,132.17-132.03Zm-85.61,131.68c-.16,47.55,37.78,85.93,85.12,86.08,47.56.15,85.93-37.8,86.08-85.12.15-47.56-37.79-85.93-85.12-86.08-47.56-.15-85.91,37.78-86.08,85.12Z"/>
      <path class="cls-1" d="m393.39,152.25c-18.68-.06-33.62-15-33.61-33.58.02-18.4,15.2-33.68,33.62-33.84,18.4-.16,34.05,15.59,33.89,34.1-.16,18.58-15.22,33.39-33.9,33.32Z"/>
    </g>
  </g>
</svg>