<?xml version="1.0" encoding="UTF-8"?><svg id="Layer_1" xmlns="http://www.w3.org/2000/svg" viewBox="0 0 512 512"><defs><style>.cls-1{fill:#f7e20e;}.cls-2{fill:#eee;}.cls-3{fill:#ecce00;}.cls-4{fill:#fff;}.cls-5{fill:#151515;}</style></defs><path class="cls-5" d="m256.86,3.31c-.6-4.58,2.97-2.77,5.03-3.29,3.57,0,7.15,0,10.72,0h10.74c3.57,0,7.15,0,10.72,0,3.58,0,7.16,0,10.74,0,3.57,0,7.15,0,10.72,0,.43.04.88.16,1.29.09,2.55-.44,3.95.35,3.56,3.18,0,3.58,0,7.15,0,10.73q-.35,4.69-4.85,5.21c-3.57-.3-7.14-.3-10.71,0-4.33-.07-8.65-.14-12.98-.21-.42,0-.99-.13-1.13.39-.11.4.18.78.53,1.12,1.46,1.39,2.88,2.84,4.32,4.26,2.82,3.61,6.05,6.84,9.27,10.08l.55.6c3.1,3.85,6.46,7.45,10.04,10.86.1,1.11,1.07,1.53,1.74,2.2,2.32,2.35,5.12,4.46,4.37,8.41,0,3.58,0,7.16,0,10.75-.06.91-.09,1.71-1.45,1.61-1.5-.11-3.03.03-4.54.07h-10.74c-3.57,0-7.15,0-10.72,0h-10.74c-3.57,0-7.15,0-10.72,0-3.58,0-7.16,0-10.74,0-1.12-.03-2.25-.2-3.35-.07-1.35.16-1.63-.52-1.66-1.6,0-3.59,0-7.17,0-10.76.04-1.33.24-2.69.08-3.99-.27-2.16.58-2.61,2.62-2.59,7.92.08,15.84-.03,23.76-.08,1.46.16,2.91.31,4.75-.18-3.49-3.67-6.83-6.96-9.92-10.47-5.8-6.59-11.79-13-17.78-19.41-1.63-1.75-3.79-3.32-3.51-6.2,0-3.57,0-7.14,0-10.7Z"/><path class="cls-5" d="m222.15,3.3c-.42-2.91,1.09-3.52,3.62-3.19,1.28.17,2.61-.04,3.91-.08,3.58,0,7.16,0,10.74,0,.52.04,1.05.18,1.54.09,2.56-.46,3.94.33,3.54,3.16,0,3.59,0,7.17,0,10.76,0,3.57,0,7.14,0,10.71,0,3.58,0,7.17,0,10.75,0,3.57,0,7.13,0,10.7,0,3.59,0,7.17,0,10.76,0,3.57,0,7.14,0,10.71-.05,1.07-.31,1.81-1.68,1.66-1.12-.13-2.28.03-3.41.06-3.57,0-7.14,0-10.72,0-3.58,0-7.16,0-10.74,0-3.57,0-7.14,0-10.72,0-3.58,0-7.16,0-10.74,0-2.01-.03-4.02-.16-6.02-.05-1.32.07-1.68-.51-1.68-1.63v-10.76c.38-3.55-.28-7.13.36-10.66,2.45.19,4.9.24,7.34-.04,3.58,0,7.16,0,10.73,0,3.58.26,7.15.26,10.73,0,3.32.25,3.34.25,3.32-3.01-.02-2.58-.08-5.16-.12-7.73,0-3.58,0-7.16,0-10.74,0-3.58,0-7.15,0-10.73V3.3Z"/><path class="cls-3" d="m304.79,499c-3.66.6-7.16,1.81-10.71,2.83-7.18,2-14.37,3.99-21.55,5.99-3.6.82-7.17,1.78-10.65,3.04-3.53,1-7.07,1.73-10.71.49-3.4-1.67-7.18-2.08-10.74-3.19-5.62-1.98-11.44-3.24-17.18-4.77-1.42-.38-2.69-1.44-4.3-1.03-3.41-1.6-7.13-2.17-10.71-3.2-7.15-2-14.22-4.29-21.48-5.91-3.58-.91-6.99-2.46-10.71-2.8-3.48-1.38-7.07-2.42-10.75-3.11-7.15-1.99-14.3-3.99-21.45-5.98-3.58-1.02-7.16-2.05-10.75-3.07-3.57-.95-7.14-1.91-10.71-2.86-2.89-1.37-6.03-1.91-9.09-2.62-5.6-1.29-5.62-1.17-5.96-6.97-.03-.59.17-1.27-.5-1.69.35-3.42-.67-6.76-.64-10.16l-1.07-10.75c-.06-3.6-.34-7.18-1.08-10.72.21-5.32-.76-10.56-1.1-15.84-.58-9.05-1.74-18.07-2.66-27.1.02-3.61-.3-7.18-1.07-10.72.39-3.62-.72-7.15-.62-10.75-.33-3.57-.66-7.14-.99-10.71l-1.05-10.74c-.44-3.57-.23-7.2-1.09-10.72.18-3.64-.32-7.2-1.07-10.75.56-3.61-.62-7.13-.61-10.71-.33-3.58-.66-7.17-.98-10.75-.36-3.57-.72-7.14-1.07-10.72-.43-5.8-.77-11.62-1.33-17.41-.13-1.34.28-2.86-.72-4.07.23-3.6-.63-7.13-.68-10.71-.34-3.58-.67-7.17-1.01-10.75-.37-3.57-.74-7.14-1.11-10.72.13-3.63-.32-7.2-1.07-10.75.18-3.62-.27-7.19-.94-10.74.21-3.6-.56-7.14-.68-10.72-.35-3.57-.69-7.14-1.04-10.72.14-3.63-.61-7.18-1.1-10.74.32-1.87-.24-3.67-.41-5.5-.67-7.44-1.2-14.9-1.78-22.35-.16-1.45-.32-2.89-.47-4.34-.36-3.57-.71-7.14-1.07-10.72-.27-3.59-.32-7.21-1.1-10.75.53-3.61-.77-7.12-.63-10.7-.33-3.59-.67-7.17-1-10.76-.13-1.74-.38-3.48-.37-5.21.01-1.45-1.57-3.2-.16-4.17,1.05-.73,2.9-.28,4.39-.36,18.67.04,37.35.1,56.02.1,87.75.01,175.5,0,263.25,0,11.61,0,23.23-.07,34.84-.1,4.07.23,4.32.42,3.67,4.32-.28,1.65-.55,3.26-.32,4.93-.7,3.72-1.04,7.46-1.06,11.24-.36,3.4-.71,6.81-1.07,10.21-.38,3.75-.76,7.5-1.14,11.26-.34,1.82-.09,3.66-.37,5.52-.66,4.38-.81,8.84-1.17,13.27.03.34.06.67.08,1.01-.03.55-.07,1.09-.1,1.64-.68,3.55-.93,7.14-1.03,10.75-.39,3.57-.78,7.14-1.17,10.71-.25,3.56-.5,7.12-.75,10.69-.44,3.58-1.03,7.15-.86,10.78-.81,3.54-1.11,7.12-1.02,10.75-.85,3.52-.65,7.15-1.08,10.71-.37,3.58-.74,7.16-1.11,10.75-.22,3.59-.36,7.18-1.07,10.72-.17,3.58-.35,7.16-.52,10.75-.72,3.53-.95,7.12-1.02,10.71-.65,4.35-.93,8.73-1.33,13.1-.25,2.78,0,5.65-.89,8.37.15,3.59-.98,7.11-.55,10.72-.76,3.54-1.26,7.11-1.01,10.75-.71,3.54-.86,7.13-1.09,10.71-.37,3.58-.74,7.16-1.1,10.75-.25,3.56-.49,7.12-.74,10.68-.54,3.57-1.06,7.15-.88,10.78-.8,3.53-1.1,7.1-1.01,10.71-.84,3.53-.59,7.18-1.13,10.75-.36,3.57-.71,7.14-1.07,10.72-.04,1.24.01,2.49-.15,3.71-.78,5.9-1.25,11.82-1.44,17.77-.81,3.53-.75,7.14-1.07,10.71-.37,3.58-.73,7.16-1.1,10.75-.36,3.57-.72,7.14-1.07,10.72.21,3.6-1,7.13-.55,10.75-.83,3.52-1.19,7.09-1.01,10.71-.22.93-.74,1.92-.59,2.79.49,2.79-.63,4.25-3.3,4.73-1.62.38-3.27.66-4.85,1.16-5.5,1.72-11.22,2.67-16.6,4.83-3.9.58-7.63,1.81-11.34,3.1-3.46.64-6.85,1.53-10.13,2.81-2.49.33-4.87,1.02-7.19,1.97-1.3-.02-2.45.5-3.63.94-3.6.84-7.19,1.7-10.66,3.01-3.7.56-7.2,1.9-10.79,2.87-7.15,1.96-14.38,3.67-21.4,6.08Zm-48.8-113.19c-4.95-.41-9.59-2.14-14.34-3.37-11.74-3.04-23.42-6.32-35.14-9.44-.92-.24-1.42-.54-1.51-1.51-.5-5.27-1.05-10.54-1.55-15.82-.58-6.16-1.13-12.33-1.65-18.49-.11-1.26-.98-1.05-1.75-1.05-14.03,0-28.06.03-42.09-.02-1.54,0-1.77.69-1.74,1.94.05,2.39.51,4.74.64,7.14.12,2.28.29,4.58.48,6.87.44,5.27,1.28,10.52,1.56,15.8.26,4.94.86,9.86,1.23,14.79.56,7.47,1.52,14.93,1.93,22.42.09,1.64.54,2.56,2.26,3.03,10.7,2.9,21.39,5.88,32.06,8.89,6.18,1.74,12.31,3.61,18.49,5.33,9.36,2.61,18.73,5.16,28.1,7.72,4.32,1.18,8.65,2.35,12.98,3.53,0,4.38.02,8.76.02,13.14,0,10.28.1,20.56-.07,30.84-.04,2.65,1.01,2.74,2.9,2.09,2.02-.69,4.1-1.16,6.15-1.74,12.88-3.69,25.78-7.29,38.72-10.76,12.27-3.29,24.44-6.96,36.68-10.36,10.08-2.8,20.19-5.48,30.3-8.17,4.93-1.32,4.94-1.28,5.51-6.35.02-.18.04-.36.07-.53,1.39-8.78,1.6-17.66,2.56-26.48.74-6.79.97-13.64,1.73-20.43,1.08-9.62,1.7-19.27,2.62-28.89.46-4.78.68-9.58,1.23-14.33,1.05-9.08,1.57-18.21,2.46-27.3.47-4.77,1.05-9.52,1.27-14.33.33-7.08,1.33-14.12,1.98-21.19.44-4.77.75-9.56,1.16-14.34.67-7.78,1.4-15.55,2.06-23.33.36-4.25.94-8.46,1.23-12.73.49-7.34,1.35-14.66,1.99-22,.44-4.95.53-9.95,1.2-14.87,1.22-8.89,1.57-17.85,2.53-26.76.73-6.79,1.09-13.63,1.72-20.43.62-6.62,1.45-13.22,2.03-19.85.3-3.42.15-3.44-3.21-3.44-37.72,0-75.44,0-113.16,0-9.65,0-19.31.05-28.96-.04-2.04-.02-2.84.46-2.77,2.67.17,4.82.05,9.65.05,14.48-1.07.04-2.14.1-3.21.1-25.84,0-51.69,0-77.53,0-.8,0-1.61.04-2.41,0-1-.05-1.43.37-1.52,1.38-.54,5.63-1.13,11.26-1.69,16.88-.4,4.04-.73,8.09-1.14,12.13-.49,4.83-1.1,9.64-1.53,14.47-.46,5.11-.71,10.23-1.16,15.34-.65,7.48-1.29,14.97-2.13,22.43-.3,2.65-.35,5.31-.61,7.95-.45,4.56-1.07,9.1-1.47,13.67-.47,5.29-.69,10.6-1.18,15.88-.6,6.59-1.46,13.15-2.04,19.74-.66,7.5-1.02,15.02-1.78,22.51-.25,2.42.22,2.97,2.66,2.97,31.12-.09,62.24-.06,93.36-.05,1.15,0,2.33-.23,3.44.3-.01,23.99-.03,47.99-.04,71.98Z"/><path class="cls-1" d="m255.98,148.1c0-4.83.12-9.66-.05-14.48-.08-2.21.73-2.69,2.77-2.67,9.65.09,19.31.04,28.96.04,37.72,0,75.44,0,113.16,0,3.36,0,3.51.02,3.21,3.44-.58,6.62-1.42,13.23-2.03,19.85-.63,6.81-.99,13.64-1.72,20.43-.96,8.91-1.31,17.87-2.53,26.76-.67,4.92-.77,9.91-1.2,14.87-.64,7.33-1.5,14.65-1.99,22-.28,4.26-.87,8.48-1.23,12.73-.66,7.78-1.39,15.55-2.06,23.33-.41,4.78-.72,9.56-1.16,14.34-.65,7.06-1.66,14.11-1.98,21.19-.22,4.81-.81,9.56-1.27,14.33-.89,9.09-1.42,18.21-2.46,27.3-.55,4.75-.77,9.56-1.23,14.33-.92,9.63-1.54,19.28-2.62,28.89-.76,6.79-.99,13.64-1.73,20.43-.96,8.82-1.17,17.71-2.56,26.48-.03.18-.05.35-.07.53-.57,5.07-.58,5.04-5.51,6.35-10.11,2.7-20.22,5.37-30.3,8.17-12.24,3.4-24.41,7.07-36.68,10.36-12.94,3.47-25.84,7.08-38.72,10.76-2.05.59-4.13,1.05-6.15,1.74-1.89.65-2.94.56-2.9-2.09.17-10.28.07-20.56.07-30.84,0-4.38-.01-8.76-.02-13.14.02-.15.03-.29.04-.44.61-.11,1.24-.17,1.83-.34,16.39-4.52,32.78-9.05,49.17-13.59,13.34-3.69,26.68-7.41,40.03-11.06,1.31-.36,1.71-.88,1.83-2.3.41-4.59.87-9.16,1.16-13.76.33-5.2,1.03-10.37,1.49-15.57.42-4.76.5-9.55,1.13-14.28.73-5.45,1.07-10.91,1.56-16.37.41-4.58.83-9.16,1.14-13.75.34-5.01,1.11-10,1.55-15,.44-4.93.53-9.9,1.1-14.82.89-7.65,1.66-15.3,2.1-22.99.15-2.72.52-5.44.99-8.12.49-2.84.32-3.16-2.72-3.16-30.66,0-61.31,0-91.97-.01-3.48,0-6.96.02-10.44.03l.05-.25c0-23.95,0-47.91,0-71.86.36-.06.72-.13,1.08-.19,7.63.22,15.24.76,22.85,1.16,9.92.52,19.83,1.29,29.75,1.69,1.07.04,1.52.19,1.64,1.42.63,6.58,1.48,13.15,2.07,19.73.65,7.22,1.08,14.47,1.63,21.7.3,4,.32,3.99,4.41,3.99,13.05-.01,26.1-.09,39.15.04,2.41.02,2.82-.76,2.57-2.88-.78-6.49-1.63-12.97-2.09-19.49-.55-7.94-1.46-15.84-2.12-23.76-.71-8.45-1.56-16.9-2.12-25.36-.51-7.78-1.86-15.49-1.76-23.3.03-2.03-.72-2.49-2.67-2.49-26.99.07-53.98.05-80.98.06-4.11,0-8.22.03-12.33.04-.36-.05-.73-.11-1.09-.16Z"/><path class="cls-2" d="m255.98,148.1c.36.05.73.11,1.09.16,0,10.15-.01,20.3-.01,30.45,0,5.66,0,11.33.01,16.99-.36.06-.72.13-1.08.19-8.2-.48-16.37.81-24.57.57-5.78-.17-11.53.93-17.32.51-1.11-.08-1.43.33-1.68,1.44-.68,3.05-.51,6.15-.89,9.22-.61,5-.82,10.05-1.28,15.08-.44,4.84-1,9.66-1.45,14.49-.42,4.49-.75,8.99-1.17,13.48-.47,4.91-.96,9.83-1.53,14.73-.25,2.21.73,2.62,2.73,2.61,14.93-.07,29.85-.04,44.78-.05.8,0,1.59-.14,2.39-.21,0,0-.05.25-.05.25.02,15.15.04,30.29.06,45.44,0,.12.01.25.03.37-1.11-.53-2.29-.3-3.44-.3-31.12-.01-62.24-.04-93.36.05-2.44,0-2.91-.54-2.66-2.97.76-7.49,1.12-15.01,1.78-22.51.58-6.59,1.44-13.15,2.04-19.74.49-5.29.71-10.6,1.18-15.88.4-4.56,1.02-9.11,1.47-13.67.26-2.64.31-5.3.61-7.95.84-7.46,1.48-14.95,2.13-22.43.44-5.11.7-10.24,1.16-15.34.43-4.83,1.04-9.65,1.53-14.47.41-4.04.74-8.09,1.14-12.13.55-5.63,1.15-11.25,1.69-16.88.1-1.01.52-1.43,1.52-1.38.8.04,1.61,0,2.41,0,25.84,0,51.69,0,77.53,0,1.07,0,2.14-.07,3.21-.1Z"/><path class="cls-2" d="m255.99,433.11c0,.15-.02.29-.04.44-4.33-1.18-8.66-2.34-12.98-3.53-9.37-2.57-18.75-5.11-28.1-7.72-6.18-1.73-12.32-3.6-18.49-5.33-10.68-3-21.36-5.98-32.06-8.89-1.72-.47-2.17-1.39-2.26-3.03-.41-7.49-1.37-14.95-1.93-22.42-.37-4.93-.97-9.84-1.23-14.79-.28-5.28-1.12-10.53-1.56-15.8-.19-2.29-.36-4.59-.48-6.87-.13-2.39-.59-4.75-.64-7.14-.02-1.24.2-1.94,1.74-1.94,14.03.05,28.06.02,42.09.02.77,0,1.64-.21,1.75,1.05.53,6.17,1.08,12.33,1.65,18.49.49,5.27,1.04,10.54,1.55,15.82.09.96.6,1.26,1.51,1.51,11.72,3.12,23.4,6.4,35.14,9.44,4.75,1.23,9.4,2.96,14.34,3.37l-.05.26c.02,15.68.04,31.36.05,47.04Z"/><path class="cls-1" d="m255.99,385.81c.01-23.99.03-47.99.04-71.98-.02-.12-.03-.25-.03-.37.89.04,1.78.12,2.67.12,16.72-.02,33.44-.02,50.16-.1,1.78,0,2.64.33,2.45,2.31-.45,4.84-.73,9.71-1.18,14.55-.63,6.76-1.43,13.5-2.04,20.26-.62,6.87-1.13,13.76-1.59,20.64-.09,1.26-.94,1.41-1.73,1.63-4.19,1.15-8.4,2.22-12.59,3.35-12.07,3.27-24.14,6.56-36.21,9.84,0,0,.05-.26.05-.26Z"/><path class="cls-2" d="m432.12,161.6c.43.3.46.64.08,1.01-.03-.34-.06-.67-.08-1.01Z"/><path class="cls-4" d="m255.94,386.07c12.07-3.28,24.14-6.57,36.21-9.84,4.19-1.14,8.4-2.2,12.59-3.35.79-.22,1.64-.36,1.73-1.63.46-6.89.98-13.77,1.59-20.64.61-6.76,1.41-13.51,2.04-20.26.45-4.84.73-9.71,1.18-14.55.19-1.99-.67-2.32-2.45-2.31-16.72.09-33.44.09-50.16.1-.89,0-1.78-.08-2.67-.12-.02-15.15-.04-30.29-.06-45.44,3.48-.01,6.96-.03,10.44-.03,30.66,0,61.31,0,91.97.01,3.04,0,3.21.31,2.72,3.16-.47,2.69-.84,5.41-.99,8.12-.44,7.69-1.21,15.34-2.1,22.99-.57,4.92-.66,9.88-1.1,14.82-.45,5.01-1.21,9.99-1.55,15-.31,4.59-.73,9.17-1.14,13.75-.49,5.46-.83,10.93-1.56,16.37-.63,4.73-.71,9.52-1.13,14.28-.45,5.19-1.16,10.37-1.49,15.57-.29,4.6-.75,9.18-1.16,13.76-.13,1.42-.52,1.94-1.83,2.3-13.35,3.65-26.69,7.37-40.03,11.06-16.39,4.53-32.78,9.06-49.17,13.59-.6.16-1.22.23-1.83.34-.02-15.68-.04-31.36-.05-47.04Z"/><path class="cls-4" d="m257.06,195.71c0-5.66-.02-11.33-.01-16.99,0-10.15,0-20.3.01-30.45,4.11-.01,8.22-.04,12.33-.04,26.99,0,53.98.01,80.98-.06,1.96,0,2.7.46,2.67,2.49-.1,7.81,1.25,15.53,1.76,23.3.56,8.46,1.41,16.91,2.12,25.36.66,7.92,1.57,15.82,2.12,23.76.45,6.51,1.3,13,2.09,19.49.26,2.12-.16,2.9-2.57,2.88-13.05-.13-26.1-.05-39.15-.04-4.09,0-4.11.02-4.41-3.99-.55-7.23-.98-14.48-1.63-21.7-.59-6.59-1.44-13.15-2.07-19.73-.12-1.22-.56-1.37-1.64-1.42-9.92-.4-19.83-1.17-29.75-1.69-7.62-.4-15.23-.95-22.85-1.16Z"/><path class="cls-3" d="m255.99,267.77c-.8.07-1.59.21-2.39.21-14.93.01-29.85-.03-44.78.05-2,0-2.98-.4-2.73-2.61.57-4.9,1.06-9.81,1.53-14.73.43-4.49.75-8.99,1.17-13.48.46-4.83,1.01-9.66,1.45-14.49.45-5.02.67-10.07,1.28-15.08.37-3.07.2-6.17.89-9.22.25-1.11.57-1.52,1.68-1.44,5.79.42,11.54-.68,17.32-.51,8.2.24,16.36-1.05,24.57-.57,0,23.95,0,47.91,0,71.86Z"/></svg>