<?xml version="1.0" encoding="UTF-8"?><svg id="Layer_1" xmlns="http://www.w3.org/2000/svg" viewBox="0 0 512 512"><defs><style>.cls-1{fill:#f5e300;}</style></defs><path class="cls-1" d="m.02,256C.02,171.05.03,86.1,0,1.15,0,.21.21,0,1.15,0c169.9.02,339.8.02,509.7,0,.94,0,1.15.21,1.15,1.15-.02,169.9-.02,339.8,0,509.7,0,.94-.21,1.15-1.15,1.15-169.9-.02-339.8-.02-509.7,0-.94,0-1.15-.21-1.15-1.15.03-84.95.02-169.9.02-254.85Zm424,148.46c.07,7.18-2.58,12.89-7.59,17.05-6.52,5.42-14.32,7.15-22.49,7.69-3.32.22-6.66-.05-9.97-.44-9.2-1.09-17.43-4.45-24.62-10.3-6.05-4.92-10.76-10.99-14.83-17.58-.45-.72-.76-.81-1.51-.38-12.42,7.25-24.86,14.48-37.31,21.68-.75.43-.75.75-.39,1.44,9.32,17.66,23.03,30.7,41.19,39,11.57,5.28,23.77,8.06,36.43,8.9,8.92.59,17.81.51,26.67-.81,7.26-1.08,14.36-2.79,21.2-5.49,11.73-4.63,21.83-11.51,29.44-21.72,8.26-11.07,11.61-23.72,11.97-37.33.05-1.78-.21-3.57-.18-5.34.05-3.33-.39-6.62-.88-9.87-2.31-15.19-9.49-27.7-21.1-37.71-7.52-6.49-15.96-11.54-24.75-16.06-9.91-5.1-20.27-9.22-30.46-13.69-6.13-2.69-12.22-5.45-17.78-9.26-7.65-5.24-11.3-12.37-10.28-21.7.5-4.58,2.3-8.57,5.61-11.83,4.14-4.08,9.26-5.94,14.94-6.33,10.1-.68,18.92,2.07,25.85,9.8,2.71,3.02,4.97,6.36,6.96,9.88.38.67.63.77,1.3.34,11.96-7.71,23.93-15.39,35.91-23.06.59-.38.69-.66.31-1.25-1.33-2.06-2.56-4.19-3.93-6.22-7.05-10.39-15.87-18.79-27.3-24.25-9.76-4.66-20.14-6.57-30.85-7.15-5.07-.27-10.14-.19-15.19.3-10.67,1.05-20.85,3.81-30.19,9.18-18.97,10.92-28.97,27.61-30.88,49.19-.58,6.53,0,13.12,1.17,19.62,2.33,12.91,8.02,24.05,17.32,33.34,7.87,7.86,17.16,13.65,27.02,18.61,10.06,5.07,20.6,9.07,30.85,13.73,6.06,2.75,12.12,5.5,17.6,9.33,6.75,4.72,10.88,10.91,10.76,18.67Zm-193.29-83.98h-.01c0,26.5.01,52.99-.01,79.49,0,4.5-.49,8.96-1.73,13.3-1.82,6.37-5.35,11.31-11.78,13.74-5.43,2.05-11.09,2.35-16.72,1.64-6.5-.82-11.88-4.05-16.23-8.98-3.8-4.31-6.73-9.19-9.48-14.19-.66-1.2-1.11-1.18-2.18-.51-5.62,3.48-11.29,6.88-16.95,10.3-6.62,4.01-13.23,8.03-19.87,12-.79.47-.94.86-.47,1.64.61,1.04,1.1,2.15,1.67,3.2,13.68,25.07,35.33,37.45,63.31,39.56,4.91.37,9.88.25,14.82-.15,6.36-.52,12.63-1.47,18.75-3.3,18.01-5.4,31.19-16.34,38.63-33.82,4.54-10.68,6.25-21.94,6.27-33.44.06-54.87.03-109.74.06-164.61,0-1.05-.3-1.29-1.32-1.29-15.12.03-30.25.04-45.37,0-1.16,0-1.42.32-1.42,1.44.03,28,.02,55.99.02,83.99Z"/></svg>