<?xml version="1.0" encoding="UTF-8"?>
<svg id="Layer_1" data-name="Layer 1" xmlns="http://www.w3.org/2000/svg" viewBox="0 0 512 512">
  <defs>
    <style>
      .cls-1 {
        fill: #fff;
      }
    </style>
  </defs>
  <path class="cls-1" d="m283.02,206.88c8.77-8.09,16.88-16.85,26.25-23.93,16.61-12.54,36.41-17.25,56.7-18.94,22.34-1.86,44.6-.9,66.17,6.44,31.17,10.61,51.16,32.46,63.18,62.41,9.3,23.17,13.3,47.54,13.7,72.21.99,62.15,1.02,124.31,1.28,186.46.06,13.54-7.11,20.41-20.51,20.43-23.85.04-47.69.04-71.54,0-13.22-.02-19.61-5.84-20.18-19.18-.47-11.05-.25-22.14-.22-33.21.13-41.3.47-82.6.39-123.9-.03-14.88-1.19-29.75-6.36-43.92-7.62-20.9-22.48-32.56-44.83-33.93-23.29-1.43-40.95,7.96-51.92,28.73-8.18,15.48-11.95,32.17-11.94,49.69.01,51.52,0,103.05,0,154.57,0,14.82-6.39,21.14-21.41,21.15-22.57.01-45.14.03-67.7,0-13.51-.02-20.45-6.91-20.45-20.38-.02-101.13-.02-202.26,0-303.39,0-12.93,6.76-19.63,19.61-19.64,23.85-.02,47.69-.03,71.54,0,11.42.02,18.27,6.8,18.4,18.13.08,6.81.09,13.62.16,20.43,0,.12.27.24-.31-.24Z"/>
  <path class="cls-1" d="m17.65,340.33c0-50.25,0-100.5,0-150.75,0-14.38,6.62-21,20.98-21.01,22.36-.02,44.71-.02,67.07,0,14.41,0,21.43,6.99,21.45,21.58.05,41.09.02,82.19.02,123.28,0,58.34,0,116.68,0,175.03,0,16.88-6.69,23.52-23.61,23.52-21.51,0-43.01.03-64.52,0-14.59-.03-21.39-6.89-21.39-21.53,0-50.04,0-100.08,0-150.11Z"/>
  <path class="cls-1" d="m142.63,70.6c0,38.86-31.84,71.16-70.57,70.61C33.09,140.66,1.81,110.84,1.7,70.31,1.6,31.39,33.65.04,72.01,0c38.81-.04,70.62,31.76,70.62,70.6Z"/>
</svg>