<?xml version="1.0" encoding="UTF-8"?>
<svg id="Layer_1" data-name="Layer 1" xmlns="http://www.w3.org/2000/svg" viewBox="0 0 512 512">
  <path d="m242.3,0c9.96,0,19.92,0,29.87,0,8.35,1.57,16.81,2.71,25.05,4.76,57.49,14.33,98.99,48.45,123.38,102.42,14.16,31.34,19.76,64.41,11.94,98.56-6.77,29.54-19.14,57.06-32.85,83.92-39.83,77.99-89.25,149.86-140.8,220.35-.5.68-1.24,1.18-2.1,1.98-1.16-1.39-2.14-2.4-2.93-3.54-28.23-41.01-57.19-81.54-84.45-123.18-29.5-45.07-56.32-91.78-76.1-142.12-9.21-23.45-16.38-47.27-15.01-73.23,3.75-71.01,49.67-134.55,116.56-158.34,15.26-5.43,31.61-7.81,47.45-11.59Zm14.47,245.19c36.55.07,66.13-29.43,66.12-65.92,0-36.47-29.69-66.09-66.12-65.99-36.14.1-65.54,29.46-65.73,65.64-.2,36.54,29.22,66.2,65.73,66.27Z"/>
</svg>