<?xml version="1.0" encoding="UTF-8"?><svg id="Layer_1" xmlns="http://www.w3.org/2000/svg" viewBox="0 0 512 512"><path d="m145.77,28.7h18.68c.88.49,1.87.63,2.84.8,9.72,1.73,18.85,5.2,27.68,9.49,9.93,4.82,19.21,10.72,28.11,17.21,9.94,7.25,19.38,15.11,28.28,23.61,1.37,1.31,2.79,2.57,4.21,3.82,1.17,1.03,1.48,1,2.71-.06.23-.2.44-.42.66-.63,6.55-6.44,13.46-12.48,20.59-18.26,12.65-10.26,26.02-19.41,40.77-26.43,8.4-3.99,17.1-7.07,26.25-8.81.96-.18,1.96-.26,2.86-.73h18.68c1.08.62,2.3.76,3.48,1.02,9.23,2.07,17.08,6.67,23.7,13.32,5.37,5.39,9.14,11.89,12.06,18.88,4.53,10.86,6.54,22.28,7.1,33.93.51,10.46.25,20.94-.92,31.37-1.5,13.37-3.87,26.58-7.09,39.64-.95,3.84-.96,3.88,2.86,4.98,11.17,3.23,22.12,7.07,32.85,11.56,13.13,5.49,25.75,11.94,37.36,20.24,8.5,6.08,16.24,12.98,22.38,21.52,4.57,6.35,7.97,13.25,9.74,20.91.38,1.63.21,3.34.88,4.91v11.39c-.15.58-.37,1.16-.45,1.75-.7,5.82-2.78,11.17-5.47,16.31-4.5,8.61-10.96,15.65-18.16,22-8.87,7.82-18.88,14-29.35,19.43-15.01,7.78-30.78,13.66-46.93,18.56-1.52.46-3.06.89-4.58,1.38-1.66.54-1.85.85-1.57,2.45.06.37.18.74.26,1.11,1.59,6.8,3.11,13.61,4.35,20.48,1.92,10.54,3.4,21.14,3.83,31.84.38,9.54.44,19.11-.81,28.64-1.54,11.69-4.38,22.96-10.42,33.22-6.44,10.93-15.41,18.84-27.66,22.73-2.17.69-4.36,1.3-6.53,1.95h-20.95c-2.41-.98-5.01-1.17-7.51-1.82-11.71-3.04-22.55-8.11-32.9-14.23-16.41-9.69-31.19-21.53-45.06-34.55-1.49-1.4-3.01-2.78-4.53-4.14-1.19-1.07-1.41-1.05-2.66.08-.23.2-.44.42-.65.64-4.12,4.14-8.48,8.04-12.9,11.85-13.08,11.27-26.88,21.54-42.14,29.72-10.15,5.44-20.75,9.7-32.12,11.86-.75.14-1.5.24-2.19.6h-20.5c-1.54-.69-3.22-.87-4.82-1.32-8.37-2.36-15.68-6.58-21.7-12.83-7.03-7.31-11.63-16.07-14.53-25.74-2.67-8.91-4.02-18.02-4.61-27.32-.51-7.91-.31-15.78.26-23.65.82-11.44,2.49-22.78,4.85-34.01,1.03-4.9,2.17-9.78,3.25-14.67.43-1.96.27-2.23-1.55-2.87-.57-.2-1.15-.38-1.74-.55-8.18-2.33-16.24-5.03-24.18-8.08-15.35-5.89-30.18-12.82-43.78-22.17-8.67-5.96-16.67-12.69-23.11-21.1-6.15-8.03-10.57-16.82-11.89-26.98-.13-.99-.41-1.93-.85-2.82v-6.83c.54-1.1.77-2.29.94-3.5.68-4.92,2.14-9.61,4.21-14.13,4.58-10.02,11.72-18.05,19.88-25.2,9.95-8.71,21.25-15.41,33.07-21.21,13.73-6.73,28.02-12.05,42.67-16.43,1.67-.5,3.36-.96,5.01-1.54,1.44-.5,1.65-.93,1.43-2.39-.05-.37-.15-.74-.24-1.11-3.13-12.61-5.55-25.35-7.03-38.27-.81-7.09-1.31-14.2-1.5-21.33-.18-6.53.21-13.05.91-19.54,1.24-11.49,3.9-22.58,9.41-32.85,7.28-13.58,18.14-22.57,33.28-26.15,1.1-.26,2.25-.4,3.28-.93Zm111.93,310.21c7.77.17,16.27-.06,24.76-.45,6.29-.29,12.57-.65,18.86-.96,1.31-.06,2.34-.55,3.05-1.68.4-.64.85-1.26,1.28-1.89,9.61-14.31,18.61-29,27.02-44.05,5.67-10.14,11-20.45,16.17-30.86.82-1.65.82-3.05.05-4.73-1.92-4.13-4.08-8.14-6.15-12.2-5.51-10.83-11.41-21.44-17.58-31.9-6.41-10.85-13.13-21.51-20.13-31.99-1.07-1.6-2.29-2.42-4.25-2.49-3.48-.13-6.95-.61-10.44-.74-10.01-.37-20.02-.63-30.02-.95-7.44-.24-14.86.54-22.3.41-4.86-.08-9.71.37-14.55.6-3.63.17-7.27.24-10.9.68-1.67.2-2.88.75-3.7,2.2-.22.39-.54.73-.79,1.11-5.18,7.86-10.32,15.74-15.21,23.79-6.34,10.45-12.43,21.04-18.13,31.86-3.43,6.51-6.95,12.98-10.04,19.67-.78,1.68-.73,3.07.1,4.72,4.1,8.13,8.22,16.26,12.57,24.26,9.39,17.29,19.58,34.08,30.48,50.47,1.75,2.63,3.66,3.89,6.84,3.84,3.32-.06,6.66.3,9.99.5,6.51.38,13.03.59,19.55.76,4.25.11,8.5.02,13.48.02Zm-136.58,69.98c-.16,5.11.33,11.84,1.45,18.51,1.29,7.68,3.38,15.1,7.51,21.82,6.01,9.75,15.01,13.76,26.14,13.47,3.87-.1,7.69-.85,11.45-1.82,10.63-2.73,20.3-7.61,29.59-13.29,13.72-8.39,26.09-18.53,37.92-29.37,1.62-1.49,3.14-3.09,4.72-4.62.85-.82.99-1.64.15-2.57-.71-.79-1.35-1.65-2.07-2.42-5.62-6.07-10.97-12.38-16.19-18.79-7.68-9.41-15.11-19.02-22.07-28.98-1.14-1.63-2.5-2.48-4.48-2.64-3.93-.33-7.86-.73-11.77-1.21-16.27-2.01-32.48-4.47-48.51-7.99-1.19-.26-2.39-.46-3.57-.72-1.2-.26-1.9.22-2.19,1.38-.13.52-.28,1.03-.4,1.54-1.59,6.64-3.05,13.32-4.21,20.05-2.06,11.91-3.49,23.87-3.47,37.64Zm369.5-152.61c-.07-3.56-.93-7.16-2.44-10.6-2.16-4.92-5.25-9.21-8.93-13.1-5.78-6.12-12.45-11.11-19.59-15.49-18-11.05-37.57-18.39-57.75-24.29-2.21-.65-2.52-.46-3.29,1.81-1.58,4.67-3.08,9.37-4.7,14.03-5.28,15.21-11.35,30.11-18.06,44.74-1.07,2.33-1.03,4.18,0,6.42,8.66,18.76,16.1,38.01,22.46,57.67,1.14,3.53.53,3.79,4.86,2.51,12.82-3.79,25.43-8.19,37.57-13.82,10.28-4.77,20.18-10.2,29.16-17.19,6.14-4.78,11.7-10.12,15.84-16.79,2.98-4.81,4.76-9.98,4.86-15.89Zm-467.45.6c-.2,4.76,1.38,9.53,3.94,14.03,3.85,6.78,9.24,12.18,15.27,17,8.82,7.06,18.56,12.59,28.75,17.39,12.25,5.77,24.93,10.37,37.88,14.27.8.24,1.6.47,2.41.68,2.35.63,2.78.42,3.58-1.79.28-.78.54-1.58.79-2.38,4.39-13.99,9.64-27.65,15.3-41.16,2.29-5.46,4.69-10.87,7.1-16.27.67-1.51.73-2.86-.06-4.34-.75-1.4-1.32-2.9-1.97-4.35-5.64-12.61-10.84-25.4-15.44-38.43-2.02-5.72-3.92-11.49-5.89-17.23-.65-1.88-.96-2.03-2.84-1.59-.3.07-.59.16-.88.24-9.59,2.89-19.1,6.04-28.39,9.8-11.99,4.86-23.55,10.52-34.22,17.89-6.84,4.72-13.16,10.02-18.18,16.72-4.22,5.63-7.27,11.74-7.15,19.51Zm369.52,150.04c-.25-4-.51-8.93-.87-13.84-.87-11.91-2.93-23.64-5.48-35.28-.54-2.45-1.1-4.89-1.72-7.31-.6-2.35-.94-2.52-3.38-2.01-1.56.33-3.12.66-4.68.98-16.21,3.37-32.53,6-48.99,7.77-3.32.36-6.63.75-9.95,1.1-1.47.15-2.52.85-3.35,2.06-1.33,1.94-2.73,3.83-4.12,5.73-11.24,15.39-23.2,30.2-36.08,44.26-1.71,1.86-1.78,2.05.14,3.84,3.93,3.68,7.86,7.37,11.93,10.89,7.01,6.05,14.26,11.81,21.9,17.06,9.86,6.78,20.16,12.73,31.47,16.73,7.62,2.7,15.43,4.49,23.65,3.5,8.18-.99,14.56-4.85,19.3-11.54,3.07-4.33,5.04-9.15,6.53-14.2,2.78-9.41,3.33-19.1,3.72-29.73ZM121.15,106.25c-.25,4.3.16,9.38.6,14.44.92,10.59,2.61,21.08,4.84,31.47.79,3.71,1.67,7.4,2.59,11.08.41,1.67.77,1.83,2.41,1.61.3-.04.6-.12.89-.18,9.72-2.1,19.48-3.96,29.3-5.5,11.25-1.76,22.53-3.2,33.86-4.26,1.58-.15,2.68-.76,3.59-2.03,2.83-3.95,5.67-7.89,8.59-11.76,10.02-13.26,20.5-26.15,31.76-38.39,1.56-1.69,1.58-2.08-.11-3.74-1.4-1.38-2.92-2.65-4.35-4.01-8.43-8.01-17.39-15.38-26.86-22.12-8.85-6.3-18.07-12.03-28.12-16.27-8.59-3.63-17.39-6.36-26.87-6.04-8.79.29-16.02,3.73-21.38,10.78-3.78,4.97-6.1,10.64-7.67,16.64-2.35,9.02-3.24,18.21-3.08,28.29Zm237.57-55.72c-4.53-.17-8.92.74-13.26,1.86-9.94,2.58-19.03,7.13-27.79,12.35-10.06,6-19.41,13-28.35,20.57-5.21,4.41-10.35,8.91-15.17,13.75-1.69,1.7-1.7,1.74-.19,3.5,1.88,2.18,3.79,4.34,5.71,6.49,7.52,8.45,14.64,17.22,21.58,26.16,4.52,5.82,8.87,11.75,13.12,17.76.8,1.13,1.73,1.77,3.15,1.91,5.51.55,11.02,1.14,16.51,1.8,15,1.81,29.89,4.28,44.67,7.45,1.19.25,2.38.5,3.56.76,1.09.24,1.76-.18,2.03-1.26.15-.59.31-1.17.46-1.76,1.56-6.18,2.81-12.43,3.99-18.7,2.2-11.66,3.47-23.42,3.79-35.26.23-8.73-.45-17.44-2.24-26.02-1.18-5.67-3.01-11.12-5.79-16.24-4.49-8.25-11.17-13.44-20.59-14.88-1.74-.27-3.48-.23-5.22-.26Zm-76.43,102.04c.83,0,1.67.06,2.5-.01,1.12-.1,1.3-.5.67-1.48-.49-.76-1.07-1.47-1.63-2.19-6.91-8.95-14.14-17.65-21.58-26.16-1.3-1.48-2.63-2.95-3.97-4.39-1.13-1.21-1.58-1.21-2.82-.06-.45.41-.87.85-1.27,1.31-2.11,2.39-4.21,4.78-6.31,7.18-6.64,7.61-12.95,15.49-19.13,23.47-.4.52-1.12,1.06-.82,1.77.36.87,1.31.61,2.03.59,2.88-.1,5.76-.37,8.64-.38,14.57-.04,29.14-.31,43.7.37Zm51.4,181.58c.38-.05.75-.1,1.13-.15,5.5-.65,10.98-1.48,16.44-2.38,7.94-1.3,15.85-2.76,23.7-4.48,2.61-.57,2.85-1,2.07-3.4-4.18-12.93-8.85-25.68-14.11-38.21-.18-.42-.36-.84-.61-1.22-.46-.69-.99-.63-1.46-.01-.27.36-.47.78-.69,1.18-1.6,3.02-3.17,6.05-4.8,9.05-5.04,9.26-10.27,18.42-15.8,27.41-2.19,3.55-4.42,7.08-6.6,10.64-.71,1.16-.48,1.59.71,1.58Zm-154.6-155.1c-.24.03-.62.07-1,.12-8.65,1.16-17.27,2.55-25.86,4.1-4.85.87-9.68,1.93-14.5,2.97-1.68.36-1.86.76-1.44,2.4.13.51.31,1.02.48,1.52,1.82,5.31,3.6,10.64,5.48,15.94,2.62,7.37,5.54,14.62,8.5,21.86.24.59.34,1.47,1.21,1.44.7-.03.82-.81,1.14-1.31.08-.13.14-.27.21-.4,5.81-11.01,11.86-21.89,18.28-32.56,2.86-4.75,5.81-9.44,8.69-14.17.87-1.43.56-1.91-1.21-1.9Zm155.53-.05c-.73.11-1.45-.19-1.82.45-.37.64.23,1.12.5,1.64.1.2.25.38.37.57,8.4,13.27,16.3,26.82,23.7,40.68,1.14,2.14,2.26,4.29,3.46,6.4.57,1,1.06.96,1.61-.01.15-.26.25-.55.37-.83,5.32-12.66,10.04-25.55,14.22-38.63.72-2.24.47-2.63-1.77-3.2-.37-.09-.74-.16-1.11-.24-7.78-1.7-15.61-3.15-23.47-4.41-5.39-.86-10.8-1.63-16.05-2.42Zm-155.75,155.06c.98.07,1.48.22,1.81-.19.41-.52.04-1.01-.22-1.46-.46-.79-.93-1.57-1.41-2.34-9.05-14.39-17.56-29.08-25.41-44.15-.44-.84-.68-2.24-1.69-2.21-1.03.03-1.15,1.44-1.51,2.32-3.08,7.43-5.99,14.92-8.7,22.49-1.87,5.21-3.57,10.48-5.29,15.74-.62,1.9-.38,2.25,1.5,2.73.29.08.59.12.89.18,8.61,1.79,17.24,3.49,25.94,4.82,4.87.74,9.75,1.43,14.11,2.07Zm56.22,26.64c-1.52,0-3.03-.03-4.55.01-.88.03-2.09-.62-2.57.18-.57.97.61,1.73,1.17,2.47,5.27,6.95,10.78,13.71,16.43,20.35,3.19,3.75,6.47,7.43,9.74,11.11,1.15,1.29,1.57,1.31,2.77.08,1.37-1.41,2.65-2.92,3.97-4.38,8.08-8.96,15.66-18.33,22.99-27.9.28-.36.58-.71.8-1.1.3-.53.07-.88-.51-.93-.45-.03-.91.06-1.36.06-5.91.03-11.82.39-17.73.47-10.38.14-20.77.2-31.15-.43Z"/><path d="m256.88,302.02c-24.76.58-45.71-20.75-45.64-45.5.07-23.89,19.3-45.56,45.72-45.52,24.99.04,45.43,20.08,45.41,45.61-.03,26.2-21.49,45.8-45.48,45.42Z"/></svg>