<?xml version="1.0" encoding="UTF-8"?><svg id="Layer_1" xmlns="http://www.w3.org/2000/svg" viewBox="0 0 542 542"><defs><style>.cls-1{fill:#fff;}.cls-2{fill:#009d9b;}</style></defs><path class="cls-1" d="m271,0h0C420.57,0,542,121.43,542,271h0c0,149.57-121.43,271-271,271h0C121.43,542,0,420.57,0,271H0C0,121.43,121.43,0,271,0Z" transform="translate(542 0) rotate(90)"/><rect class="cls-2" x="15" y="15" width="512" height="512" rx="256" ry="256"/><g id="Y0pMJs.tif"><g><path class="cls-1" d="m497.77,288.14c-.28,1.3-.54,2.61-.98,3.88-1.34,3.8-3.78,6.76-6.97,9.16-4.04,3.05-8.67,4.67-13.61,5.5-4.57.77-9.17.67-13.78.5-4.1-.15-8.16-.62-12.17-1.45-1.52-.31-3.03-.7-4.55-1.02-.41-.09-.56-.29-.55-.69.02-.75,0-1.49,0-2.24,0-3.58,0-7.16,0-10.74,0-.77.02-.79.76-.54,4.4,1.46,8.87,2.63,13.47,3.24,4.3.57,8.62.92,12.92-.07,1.9-.44,3.68-1.18,4.75-2.93,1.4-2.29,1.27-5.19-1.33-7.12-1.7-1.26-3.69-1.92-5.6-2.76-4-1.75-8.06-3.37-12.03-5.22-3.11-1.45-5.97-3.28-8.43-5.69-3.14-3.07-5.06-6.78-5.7-11.14-.56-3.84-.2-7.57,1.44-11.13.99-2.15,2.4-4.01,4.13-5.62,4.04-3.76,8.94-5.7,14.28-6.72,3.74-.72,7.51-.82,11.29-.67,3.36.13,6.7.55,10.03,1.08,2.23.36,4.46.77,6.68,1.22.63.13.87.39.87,1.06-.03,3.99-.01,7.99-.02,11.98,0,.84-.04.86-.82.57-4.09-1.51-8.26-2.72-12.59-3.33-3.25-.46-6.5-.67-9.74.06-1.8.4-3.42,1.16-4.8,2.41-2.01,1.82-1.83,4.73.39,6.52,1.05.85,2.19,1.54,3.41,2.1,3.96,1.8,7.83,3.8,11.75,5.69,2.43,1.17,4.87,2.33,7.13,3.8,3.68,2.4,6.85,5.28,8.82,9.3.62,1.26,1.06,2.58,1.34,3.96.05.27.14.53.21.79v6.26Z"/><path class="cls-1" d="m69.68,307.38c-.26-.14-.54-.1-.81-.09-3.03.03-6.06-.03-9.09-.27-3.06-.24-6.1-.66-9.1-1.31-1.46-.31-2.91-.67-4.38-.98-.47-.1-.65-.3-.65-.79.02-4.35.02-8.69,0-13.04,0-.56.18-.62.67-.45,4.13,1.4,8.33,2.51,12.64,3.15,4.43.66,8.88,1.05,13.33.17,1.71-.34,3.34-.93,4.59-2.25,2.06-2.17,2.18-5.98-.95-8.09-1.57-1.06-3.32-1.7-5.03-2.45-4.25-1.87-8.58-3.56-12.77-5.57-3.93-1.88-7.46-4.32-10.09-7.87-2.08-2.79-3.32-5.92-3.67-9.39-.38-3.64-.04-7.18,1.54-10.54,1.26-2.66,3.12-4.85,5.42-6.67,4.24-3.37,9.16-5.03,14.44-5.84,3.35-.51,6.71-.56,10.07-.42,3.78.16,7.52.66,11.24,1.32,1.78.31,3.55.69,5.34,1.01.5.09.68.32.68.83-.02,4.11,0,8.22-.01,12.33,0,.66-.05.69-.68.46-3.06-1.11-6.14-2.11-9.33-2.78-3.05-.64-6.13-1.06-9.25-1-2.22.04-4.4.37-6.42,1.35-1.15.56-2.18,1.27-2.91,2.34-1.1,1.62-.95,3.48.34,4.94.98,1.11,2.2,1.92,3.53,2.53,2.95,1.36,5.86,2.8,8.77,4.24,3.23,1.6,6.54,3.04,9.63,4.89,3.31,1.98,6.26,4.36,8.48,7.56,1.8,2.6,2.83,5.46,3.08,8.61.3,3.83-.31,7.49-2.05,10.93-1.65,3.25-4.13,5.76-7.16,7.76-3.8,2.51-8,3.93-12.45,4.67-2.1.35-4.21.54-6.34.6-.18,0-.36,0-.51.1h-.12Z"/><path class="cls-1" d="m272.03,260.32c-.63,1.47-1.25,2.88-1.85,4.3-4.28,10-8.56,20-12.84,29.99-1.64,3.83-3.29,7.66-4.91,11.5-.19.44-.44.58-.89.57-3.56-.01-7.13-.02-10.69,0-.49,0-.73-.18-.91-.62-3.57-8.72-7.16-17.43-10.74-26.14-2.63-6.38-5.26-12.77-7.88-19.15-.06-.14-.13-.28-.32-.41v.66c0,14.63,0,29.27,0,43.9,0,.2-.01.39,0,.59.03.42-.18.57-.57.55-.12,0-.24,0-.35,0-4.08,0-8.15,0-12.23,0-.93,0-.93,0-.93-.9,0-22.81,0-45.62,0-68.44,0-.87,0-.87.9-.87,7.9,0,15.8,0,23.69-.01.58,0,.86.18,1.08.73,4.05,10.14,8.12,20.26,12.19,30.39,1.47,3.65,2.94,7.3,4.41,10.94.07.18.1.38.31.54.25-.21.31-.53.42-.8,3.55-8.43,7.09-16.86,10.64-25.29,2.23-5.31,4.48-10.62,6.7-15.93.17-.4.4-.57.84-.57,7.6,0,15.21.01,22.81,0,.66,0,.66.36.65.83,0,9.38,0,18.76,0,28.14,0,13.41,0,26.83,0,40.24q0,1-1,1c-5.81,0-11.62,0-17.43,0q-.98,0-.98-.99c0-14.71,0-29.42,0-44.13,0-.19.07-.38-.1-.63Z"/><path class="cls-1" d="m416.68,279.53v-.76c0-13.97,0-27.93,0-41.9q0-1,1-1.01c4.08,0,8.15,0,12.23,0,.85,0,.85,0,.85.86,0,22.84,0,45.67,0,68.51,0,.82-.01.84-.82.84-6.82,0-13.63,0-20.45.01-.54,0-.86-.17-1.12-.65-3.73-6.84-7.47-13.67-11.22-20.5-4.22-7.69-8.44-15.38-12.66-23.07-.06-.11-.07-.27-.25-.31-.11.24-.05.5-.05.75,0,14.24,0,28.48,0,42.72q0,1.05-1.02,1.05c-4.08,0-8.15,0-12.23,0-.82,0-.83-.02-.83-.82,0-22.86,0-45.71,0-68.57,0-.8.02-.82.83-.82,7.03,0,14.06,0,21.1-.01.54,0,.85.18,1.11.66,2.94,5.45,5.91,10.89,8.87,16.33,3.22,5.93,6.43,11.86,9.64,17.79,1.53,2.82,3.06,5.63,4.59,8.45.09.17.21.32.31.48.04-.01.08-.03.11-.04Z"/><path class="cls-1" d="m307.38,270.92c0-11.29,0-22.58,0-33.87,0-.24,0-.47,0-.71,0-.31.17-.47.48-.47.2,0,.39,0,.59,0,16.25,0,32.5,0,48.75,0q1,0,1,1.01c0,3.68,0,7.36,0,11.03q0,1.06-1.09,1.06c-9.51,0-19.03,0-28.54,0q-.98,0-.98.96c0,4.56,0,9.13,0,13.69,0,.78,0,.78.79.78,8.35,0,16.7,0,25.05,0q.86,0,.86.85c0,3.36,0,6.72,0,10.09,0,.77-.02.79-.8.79-8.33,0-16.66,0-24.99,0q-.9,0-.9.91c0,4.84,0,9.68,0,14.51,0,.82,0,.82.81.82,9.83,0,19.65,0,29.48,0q.91,0,.91.91c0,3.97,0,7.95,0,11.92,0,.87,0,.87-.9.87-16.51,0-33.01,0-49.52,0-.98,0-1-.02-1-1.04,0-11.37,0-22.74,0-34.11Z"/><path class="cls-1" d="m144.24,270.94c0-11.39,0-22.78,0-34.17,0-.91,0-.92.91-.92,16.31,0,32.62,0,48.93,0,.9,0,.9,0,.9.87,0,3.78,0,7.55,0,11.33q0,.9-.93.9c-9.61,0-19.22,0-28.84,0q-.96,0-.96.98c0,4.54,0,9.09,0,13.63,0,.82,0,.82.81.82,8.33,0,16.66,0,24.99,0,.88,0,.88,0,.88.88,0,3.3,0,6.61,0,9.91,0,.92-.01.93-.92.93-8.29,0-16.58,0-24.88,0q-.9,0-.9.91c0,4.84,0,9.68,0,14.52,0,.81,0,.81.82.81,9.87,0,19.73,0,29.6,0q.91,0,.91.91c0,3.99,0,7.99,0,11.98,0,.8-.01.81-.83.81-16.55,0-33.09,0-49.64,0-.87,0-.87,0-.87-.9,0-11.41,0-22.82,0-34.23Z"/><path class="cls-1" d="m128.32,270.98c0,11.39,0,22.77,0,34.16q0,.93-.95.93c-6.3,0-12.6,0-18.91,0-.96,0-.96,0-.96-.99,0-22.79,0-45.58,0-68.37,0-.85,0-.85.86-.85,6.36,0,12.72,0,19.08,0,.87,0,.87,0,.87.89,0,11.41,0,22.81,0,34.22Z"/></g></g></svg>