<?xml version="1.0" encoding="UTF-8"?>
<svg id="Layer_1" data-name="Layer 1" xmlns="http://www.w3.org/2000/svg" viewBox="0 0 512 512">
  <circle class="cls-1" cx="256" cy="256" r="122.17"/>
  <g>
    <path class="cls-1" d="m499.01,248.65c5.78,3.33,5.78,11.67,0,15l-30.13,17.4-30.13,17.4c-5.78,3.33-12.99-.83-12.99-7.5v-69.58c0-6.67,7.22-10.84,12.99-7.5l30.13,17.4,30.13,17.4Z"/>
    <path class="cls-1" d="m12.99,263.35c-5.78-3.33-5.78-11.67,0-15l30.13-17.4,30.13-17.4c5.78-3.33,12.99.83,12.99,7.5v69.58c0,6.67-7.22,10.84-12.99,7.5l-30.13-17.4-30.13-17.4Z"/>
  </g>
  <g>
    <path class="cls-1" d="m248.65,12.99c3.33-5.78,11.67-5.78,15,0l17.4,30.13,17.4,30.13c3.33,5.78-.83,12.99-7.5,12.99h-69.58c-6.67,0-10.84-7.22-7.5-12.99l17.4-30.13,17.4-30.13Z"/>
    <path class="cls-1" d="m263.35,499.01c-3.33,5.78-11.67,5.78-15,0l-17.4-30.13-17.4-30.13c-3.33-5.78.83-12.99,7.5-12.99h69.58c6.67,0,10.84,7.22,7.5,12.99l-17.4,30.13-17.4,30.13Z"/>
  </g>
  <path class="cls-1" d="m422.53,79.06c6.44-1.73,12.34,4.17,10.61,10.61l-9,33.61-9,33.61c-1.73,6.44-9.78,8.6-14.49,3.88l-24.6-24.6-24.6-24.6c-4.72-4.72-2.56-12.77,3.88-14.49l33.61-9,33.61-9Z"/>
  <path class="cls-1" d="m89.47,433.33c-6.44,1.73-12.34-4.17-10.61-10.61l9-33.61,9-33.61c1.73-6.44,9.78-8.6,14.49-3.88l24.6,24.6,24.6,24.6c4.72,4.72,2.56,12.77-3.88,14.49l-33.61,9-33.61,9Z"/>
  <path class="cls-1" d="m78.67,89.56c-1.73-6.44,4.17-12.34,10.61-10.61l33.61,9,33.61,9c6.44,1.73,8.6,9.78,3.88,14.49l-24.6,24.6-24.6,24.6c-4.72,4.72-12.77,2.56-14.49-3.88l-9-33.61-9-33.61Z"/>
  <path class="cls-1" d="m432.72,422.83c1.73,6.44-4.17,12.34-10.61,10.61l-33.61-9-33.61-9c-6.44-1.73-8.6-9.78-3.88-14.49l24.6-24.6,24.6-24.6c4.72-4.72,12.77-2.56,14.49,3.88l9,33.61,9,33.61Z"/>
</svg>